<svg preserveAspectRatio="none" width="100%" height="100%" overflow="visible" style="display: block;" viewBox="0 0 40 40" fill="none" xmlns="http://www.w3.org/2000/svg">
<g id="ai-magic">
<path id="Vector" d="M16.6667 11.6667L15.8069 13.9901C14.6796 17.0367 14.1159 18.56 13.0046 19.6713C11.8934 20.7825 10.3701 21.3462 7.32342 22.4737L5 23.3333L7.32342 24.193C10.3701 25.3205 11.8934 25.8842 13.0046 26.9953C14.1159 28.1067 14.6796 29.63 15.8069 32.6765L16.6667 35L17.5263 32.6765C18.6538 29.63 19.2175 28.1067 20.3287 26.9953C21.44 25.8842 22.9633 25.3205 26.0098 24.193L28.3333 23.3333L26.0098 22.4737C22.9633 21.3462 21.44 20.7825 20.3287 19.6713C19.2175 18.56 18.6538 17.0367 17.5263 13.9901L16.6667 11.6667Z" stroke="var(--stroke-0, #FF6400)" stroke-width="2" stroke-linejoin="round"/>
<path id="Vector_2" d="M30 5L29.6315 5.99575C29.1483 7.30145 28.9068 7.95432 28.4305 8.43055C27.9543 8.9068 27.3015 9.14838 25.9958 9.63153L25 10L25.9958 10.3685C27.3015 10.8516 27.9543 11.0932 28.4305 11.5694C28.9068 12.0457 29.1483 12.6985 29.6315 14.0042L30 15L30.3685 14.0042C30.8517 12.6985 31.0932 12.0457 31.5695 11.5694C32.0457 11.0932 32.6985 10.8516 34.0042 10.3685L35 10L34.0042 9.63153C32.6985 9.14838 32.0457 8.9068 31.5695 8.43055C31.0932 7.95432 30.8517 7.30145 30.3685 5.99575L30 5Z" stroke="var(--stroke-0, #FF6400)" stroke-width="2" stroke-linejoin="round"/>
</g>
</svg>
