<svg preserveAspectRatio="none" width="100%" height="100%" overflow="visible" style="display: block;" viewBox="0 0 40 40" fill="none" xmlns="http://www.w3.org/2000/svg">
<g id="chart-relationship">
<path id="Vector" d="M18.3333 8.33333H30" stroke="var(--stroke-0, #FF6400)" stroke-width="2" stroke-linecap="round" stroke-linejoin="round"/>
<path id="Vector_2" d="M16.6667 16.6667L24.1667 24.1667" stroke="var(--stroke-0, #FF6400)" stroke-width="2" stroke-linecap="round" stroke-linejoin="round"/>
<path id="Vector_3" d="M8.33333 18.3333V30" stroke="var(--stroke-0, #FF6400)" stroke-width="2" stroke-linecap="round" stroke-linejoin="round"/>
<path id="Vector_4" d="M10.8333 18.3333C14.9755 18.3333 18.3333 14.9755 18.3333 10.8333C18.3333 6.6912 14.9755 3.33333 10.8333 3.33333C6.6912 3.33333 3.33333 6.6912 3.33333 10.8333C3.33333 14.9755 6.6912 18.3333 10.8333 18.3333Z" stroke="var(--stroke-0, #FF6400)" stroke-width="2" stroke-linejoin="round"/>
<path id="Vector_5" d="M8.33333 36.6667C10.1743 36.6667 11.6667 35.1743 11.6667 33.3333C11.6667 31.4924 10.1743 30 8.33333 30C6.49238 30 5 31.4924 5 33.3333C5 35.1743 6.49238 36.6667 8.33333 36.6667Z" stroke="var(--stroke-0, #FF6400)" stroke-width="2" stroke-linejoin="round"/>
<path id="Vector_6" d="M26.6667 30C28.5076 30 30 28.5076 30 26.6667C30 24.8257 28.5076 23.3333 26.6667 23.3333C24.8257 23.3333 23.3333 24.8257 23.3333 26.6667C23.3333 28.5076 24.8257 30 26.6667 30Z" stroke="var(--stroke-0, #FF6400)" stroke-width="2" stroke-linejoin="round"/>
<path id="Vector_7" d="M33.3333 11.6667C35.1743 11.6667 36.6667 10.1743 36.6667 8.33333C36.6667 6.49238 35.1743 5 33.3333 5C31.4924 5 30 6.49238 30 8.33333C30 10.1743 31.4924 11.6667 33.3333 11.6667Z" stroke="var(--stroke-0, #FF6400)" stroke-width="2" stroke-linejoin="round"/>
</g>
</svg>
