<svg width="1624" height="357" viewBox="0 0 1624 357" fill="none" xmlns="http://www.w3.org/2000/svg">
<path d="M1008.07 71.6733C1008.94 71.1732 1012.2 73.6076 1013.14 74.2398C1022.08 80.2645 1030.54 89.0444 1022.81 99.8719L963.79 188.162C954.538 190.431 945.565 184.591 936.959 182.501C931.935 181.283 927.321 182.911 922.362 183.411C911.709 184.487 899.49 186.062 888.875 185.293C882.034 184.798 879.543 182.802 872.343 185.756C866.88 187.997 867.484 188.813 869.159 194.158C873.315 207.425 886.761 210.242 898.91 206.661C900.594 206.165 903.543 204.401 904.977 204.316C907.652 204.16 912.761 206.845 916.248 207C918.597 207.104 921.343 205.911 922.834 206.057C923.881 206.161 924.759 207.699 925.754 208.331C931.788 212.152 938.969 214.62 946.192 214.549V215.719C940.078 224.933 933.176 233.59 926.929 242.7C904.628 275.235 884.577 309.661 860.101 340.525C848.136 352.688 832.864 336.93 822.551 329.929C798.877 313.865 774.254 297.149 751.863 279.368C746.792 275.339 739.295 269.087 737.408 262.685C736.318 258.991 736.809 257.005 738.347 253.684C742.984 243.663 752.288 231.387 758.624 222.064C761.228 218.234 763.583 213.7 767.069 210.817C770.74 213.799 778.416 218.427 782.723 214.554C783.879 213.511 784.36 211.624 785.304 210.529C786.29 209.378 788.323 208.538 789.102 207.25C790.201 205.439 791.357 200.325 791.399 198.22C791.442 195.951 789.819 192.12 790.036 189.544C791.937 189.521 791.791 192.479 792.291 193.654C792.899 195.078 793.843 197.107 794.57 198.452C795.801 200.735 798.599 202.721 797.976 205.708C797.749 206.788 796.527 207.614 796.268 208.746C795.537 211.935 797.613 217.804 799.377 220.536C801.047 223.121 807.124 227.391 810.129 227.745C813.446 228.132 815.658 224.81 818.06 224.933C820.216 225.046 821.32 229.556 825.221 230.094C828.727 230.576 833.511 227.278 834.591 223.956C835.672 220.635 834.233 218.432 833.931 215.681C833.322 210.138 833.058 204.382 832.963 198.739C832.888 194.253 832.166 192.559 831.642 188.719C831.341 186.525 832.544 185.817 833.581 188.223C835.313 192.248 835.903 196.786 838.243 200.546C840.512 204.198 847.598 211.242 852.311 210.105C854.449 209.586 859.176 204.509 859.383 202.476C859.591 200.443 854.751 190.809 853.717 187.902C845.461 164.681 847.424 154.552 824.434 140.285C823.292 139.577 817.692 136.888 817.885 136.025C819.621 133.779 821.655 131.444 823.264 129.127C844.772 98.098 866.281 66.9837 887.61 35.8978C891.871 29.6891 900.174 15.4647 905.656 11.4828C909.289 8.84555 911.039 9.33149 915.219 9.85989C919.918 10.4543 925.401 12.2707 929.165 15.2571C934.435 19.4419 928.415 21.1309 929.406 26.3252C930.788 33.5624 943.862 42.215 949.811 46.5129C961.709 55.1042 976.448 66.3232 988.978 73.3953C994.248 76.3676 1000.11 79.9531 1005.41 75.3815C1006.29 74.6267 1007.87 71.7818 1008.07 71.6686L1008.07 71.6733Z" fill="#FCFCFC"/>
<path d="M1594.42 245.691C1592.82 246.017 1587.9 247.38 1586.86 248.281C1586.11 248.932 1586.55 250.211 1586.38 250.39C1585.84 250.961 1582.24 249.937 1581.42 249.984C1579.8 250.084 1574.8 252.211 1573.88 252.291C1572.89 252.376 1571.86 251.763 1570.26 251.933C1567.49 252.235 1562.91 255.179 1560.08 255.938C1558.91 256.254 1554.29 256.372 1553.91 256.604C1553.59 256.797 1553.52 258.307 1553.36 258.42C1553.06 258.632 1551.65 257.976 1550.88 258.052C1548.21 258.307 1542.92 259.529 1540.28 260.203C1538.74 260.595 1536.95 261.548 1536.57 261.628C1534.85 261.991 1525.55 259.854 1521.98 260.302C1520.21 260.524 1518.89 261.737 1517.17 262.09C1514.65 262.609 1511.25 262.298 1508.81 262.699C1506.71 263.043 1505.06 265.11 1503.96 265.426C1502.61 265.813 1500.51 264.916 1497.7 265.742C1492.46 267.28 1487.27 269.347 1482.15 270.951C1475.79 272.946 1468.95 273.862 1462.03 274.423C1448.83 275.494 1435.31 278.48 1421.97 279.664C1419 279.929 1417.74 278.603 1415.33 278.282C1409.72 277.532 1400.3 279.414 1394.7 280.693C1393.79 280.901 1393.23 281.797 1392.23 281.99C1390.37 282.354 1388.48 281.462 1387.17 281.637C1383.85 282.08 1380.29 285.052 1377.03 286.137C1376.28 286.387 1374.83 286.095 1374.59 286.321C1374.4 286.505 1374.88 287.388 1374.24 287.68C1374.1 287.746 1372 288.454 1371.88 288.477C1371.31 288.577 1370.48 288.006 1370.31 288.152C1369.4 288.935 1371.82 289.157 1371.25 290.039C1370.98 290.148 1370.66 290.36 1370.31 290.511L1370.07 290.044C1369.2 289.879 1369.32 290.181 1369.37 290.983C1368.87 291.204 1368.33 291.28 1367.95 291.454C1366.04 289.638 1364.38 292.006 1363.4 292.256C1363.02 292.351 1362.46 291.964 1361.85 292.167C1359.55 292.941 1357.41 296.337 1355.84 296.488C1355.02 296.569 1354.08 296.059 1353.09 296.125C1351.7 296.219 1348.32 296.29 1349.08 298.059C1347.19 297.474 1343.73 297.484 1341.88 298.059C1341.41 298.206 1341.36 299.008 1340.74 299.376C1338.56 300.683 1337.6 298.475 1335.68 298.541C1334.35 298.588 1332.96 299.758 1331.4 299.947C1328 300.362 1324.12 299.244 1320.99 299.008C1319.24 298.876 1317.41 300.079 1315.79 300.381C1313.22 300.862 1311.04 299.725 1308.8 302.376L1306.15 305.127C1305.21 305.183 1304.25 305.08 1303.32 305.127C1302.82 302.169 1299.36 303.476 1298.02 303.155C1296.95 302.9 1295.28 301.145 1294.31 300.687C1291.01 299.126 1291.19 299.489 1288.22 297.347C1285.26 295.205 1277.64 296.361 1273.38 295.2C1270.35 294.375 1267.91 293.469 1264.43 293.804C1263.44 293.898 1262.66 294.88 1261.58 294.766C1261.07 294.714 1255.67 291.87 1254.45 291.473C1251.76 290.596 1248.67 291.78 1247.49 291.388C1246.49 291.058 1246.62 289.718 1246.11 289.199C1245.21 288.275 1243.46 289.223 1242.24 289.1C1240.28 288.907 1237.69 287.68 1236.09 287.666C1233.54 287.638 1232.27 289.209 1229.38 287.765C1226.15 286.161 1223.18 285.821 1219.44 284.496C1218.5 284.165 1214.09 283.948 1215.31 282.472C1215.95 281.703 1217.49 282.646 1216.97 280.594L1203.99 279.136C1202.4 279.254 1201.28 280.929 1199.71 281.061C1199.23 281.103 1194.48 281.028 1194.21 280.962C1193.09 280.684 1191.94 279.056 1190.9 278.589C1190.08 278.216 1189.17 278.4 1188.51 278.136C1186.26 277.221 1185.64 273.72 1183.17 272.168C1181.92 271.38 1175.33 269.351 1178.79 267.181C1181.82 265.28 1190.03 265.902 1194.32 264.784C1195.18 264.563 1199.77 262.992 1198.57 261.722C1198.29 261.425 1192.04 263.709 1190.66 263.949C1187.58 264.473 1184.65 264.402 1181.59 264.553C1179.7 265.355 1178.74 263.756 1178.4 263.647C1172.28 261.784 1167.63 261.836 1161.54 261.246C1155.47 260.656 1150.06 257.245 1144.45 255.226C1136.04 252.207 1126.47 248.626 1117.9 246.389C1114.88 245.602 1108.29 243.776 1105.63 244.738C1101.38 246.276 1108.26 248.022 1108.47 250.183C1108.93 254.688 1101.98 252.494 1099.72 252.716C1099.09 252.777 1098.17 254.235 1095.49 254.216C1091.91 254.193 1092.32 254.749 1090.25 254.99C1088.18 255.231 1084.46 254.094 1081.81 254.179C1080.97 254.207 1076.17 254.849 1075.74 255.094C1075.11 255.452 1075.71 256.462 1075.19 256.552C1073.99 256.759 1070.55 254.99 1069.84 256.137C1069.33 256.962 1070.7 257.821 1068.48 258.278C1065.1 258.981 1063.63 257.948 1061.03 258.024C1060.47 258.038 1056.03 259.151 1055.85 259.354C1055.44 259.826 1055.37 261.071 1055.15 261.718C1054.69 261.883 1054.12 262.024 1053.74 262.19C1052.72 261.194 1046.61 263.246 1046.26 263.685C1045.95 264.077 1046.51 265.072 1045.91 265.544C1044.93 266.318 1043.15 265.341 1041.83 265.572C1040.32 265.836 1039.07 267.587 1038.3 267.785C1036.94 268.129 1033.23 266.903 1031.57 268.795C1031.26 268.776 1030.93 268.809 1030.62 268.795C1030.67 266.903 1031.07 266.771 1028.96 266.884C1027.99 266.936 1025.27 267.294 1025.43 268.795C1024.96 268.795 1024.49 268.785 1024.02 268.795C1024.23 266.719 1021.64 269.049 1022.12 266.657C1022.39 265.284 1023.26 265.822 1023.88 265.336C1024.13 265.138 1023.97 264.6 1024.02 264.548C1024.93 263.68 1026.21 262.845 1026.85 261.246C1030.13 262.496 1027.9 259.798 1027.9 259.585C1027.9 259.227 1028.83 258.826 1028.97 258.406C1029.31 257.415 1029.1 254.905 1030.4 254.641C1031.39 254.438 1031.3 255.92 1031.9 256.066C1032.34 256.174 1035.66 256.174 1035.8 256.037C1035.88 255.957 1035.85 254.542 1036.19 253.834C1039.23 247.427 1044.01 248.649 1047.85 244.738C1049.06 243.512 1049.27 241.634 1050.24 240.52C1051.47 239.114 1054.23 238.312 1055.16 236.001C1058 236.1 1061.69 235.241 1064.34 235.279C1070.47 235.364 1077.31 237.303 1083.59 236.128C1084.74 235.916 1089.78 233.547 1090.57 232.731C1092.21 231.047 1091.79 227.216 1092.55 226.452C1092.79 226.216 1093.61 226.23 1094.07 225.876C1099.7 221.569 1101.62 224.834 1107.24 224.437C1110.78 224.182 1113.08 223.64 1117.17 223.522C1118.88 223.475 1130.79 220.078 1131.59 219.252C1132.6 218.191 1129.42 218.2 1128.88 217.955C1127.74 217.445 1126.44 216.525 1125.29 215.865C1124.65 215.502 1123.78 215.714 1124.04 214.539C1127.16 214.431 1131.77 214.421 1134.68 214.091C1135.49 214.001 1136.31 213.954 1136.31 212.893C1134.85 212.218 1124.56 212.308 1124.04 212.652L1123.1 210.293C1125.66 211.44 1126.5 210.019 1128.29 209.585C1136.9 207.486 1140.61 208.944 1148.36 208.42C1150.01 208.307 1151.73 207.434 1153.08 207.448C1154.81 207.467 1157.31 209.505 1159.22 209.793C1162.26 210.246 1166.34 209.784 1169.54 210.331C1171.5 210.666 1173.84 211.902 1175.74 212.142C1182.95 213.044 1196.44 210.26 1203.31 207.698C1206.21 206.613 1206.81 205.448 1210.64 205.085C1221.53 204.047 1232.41 201.004 1243.15 199.885C1246.75 199.513 1252.15 201.527 1254.62 200.499C1255.42 200.164 1255.78 199.187 1256.87 198.975C1259.26 198.517 1262.02 199.541 1263.91 199.418C1265.24 199.333 1267.06 198.055 1269.12 197.989C1270.94 197.932 1272.49 198.555 1274.32 198.527C1285.19 198.343 1289.81 196.989 1300.94 200.178C1311.2 203.117 1319.5 202.565 1329.93 203.23C1331.33 203.32 1333 204.448 1334.7 204.632C1339.04 205.108 1347.72 204.042 1352.15 203.202C1353.44 202.962 1354.88 200.956 1356.42 200.39C1362.64 198.102 1369.16 198.753 1375.49 196.342C1376.34 196.022 1379.17 194.087 1379.52 193.295C1380.09 191.978 1379.6 190.469 1380.44 188.558C1383.11 182.453 1388.4 182.797 1393.57 180.929C1398.01 179.33 1404.37 176.589 1408.99 175.584C1415.25 174.22 1423.22 174.319 1429.42 172.904C1438.85 170.748 1448.09 166.927 1457.88 165.978C1469.15 164.884 1480.55 166.53 1491.77 164.959C1503.96 163.256 1521.52 150.966 1530.23 142.549C1531.64 141.181 1533.89 137.813 1535.02 136.968C1536.84 135.609 1539.95 135.369 1542.56 133.18C1543.06 132.755 1543.61 132.274 1543.47 131.51H1541.59C1540.92 128.603 1543.39 129.613 1544.19 128.684C1544.56 128.254 1544.54 127.202 1544.95 126.608C1545.49 125.806 1546.54 125.603 1547.19 124.607C1548.3 122.904 1548.5 120.531 1547.47 118.757C1544.09 119.182 1544.2 120.13 1542.53 122.541C1541.42 121.72 1539.68 121.583 1541.13 119.956C1541.95 119.031 1547.23 115.771 1548.71 114.799C1553.78 111.454 1560.43 107.236 1565.8 104.533C1575.09 99.8669 1568.16 103.165 1576.97 97.4277L1581.42 215.61L1594.43 245.677L1594.42 245.691ZM1354.75 261.732C1349.26 255.15 1339.84 248.819 1332.13 244.965C1327.73 242.766 1323.02 240.157 1317.96 240.502C1316.67 241.535 1320.89 242.035 1321.25 242.162C1333.85 246.531 1343.83 254.49 1354.29 262.204C1354.4 262.284 1354.51 263.643 1356.17 263.619C1356.72 261.77 1354.99 262.01 1354.76 261.732H1354.75ZM1362.3 269.28L1361.13 267.384C1360.24 267.332 1357.12 263.067 1356.64 263.624C1355.73 264.676 1361.55 269.993 1362.3 269.28Z" fill="#FEFEFE"/>
<path d="M1594.42 245.691V251.353C1588.13 251.976 1581.73 252.66 1575.54 253.933C1562.93 256.524 1549.79 261.817 1537.04 263.563C1533.31 264.077 1528.97 263.723 1525.31 264.096C1496.26 267.063 1467.87 277.532 1439.31 283.302C1425.65 286.062 1413.43 282.283 1399.81 283.434C1389.91 284.274 1380.44 286.27 1371.27 290.039C1371.84 289.162 1369.41 288.935 1370.33 288.152C1370.49 288.011 1371.33 288.581 1371.89 288.478C1372.01 288.454 1374.11 287.746 1374.25 287.68C1374.89 287.388 1374.41 286.51 1374.61 286.322C1374.84 286.095 1376.29 286.383 1377.04 286.138C1380.31 285.052 1383.87 282.08 1387.18 281.637C1388.5 281.462 1390.38 282.354 1392.25 281.991C1393.24 281.797 1393.8 280.901 1394.72 280.693C1400.31 279.41 1409.73 277.528 1415.35 278.282C1417.76 278.603 1419.02 279.929 1421.99 279.665C1435.32 278.485 1448.84 275.494 1462.04 274.423C1468.96 273.862 1475.81 272.946 1482.16 270.951C1487.28 269.342 1492.47 267.28 1497.71 265.742C1500.52 264.917 1502.63 265.813 1503.97 265.426C1505.07 265.11 1506.72 263.044 1508.82 262.699C1511.27 262.298 1514.67 262.61 1517.18 262.091C1518.91 261.737 1520.23 260.524 1522 260.303C1525.55 259.854 1534.86 261.992 1536.58 261.628C1536.96 261.548 1538.75 260.595 1540.29 260.204C1542.93 259.529 1548.23 258.307 1550.9 258.052C1551.67 257.977 1553.07 258.637 1553.37 258.42C1553.53 258.307 1553.61 256.793 1553.92 256.604C1554.31 256.373 1558.92 256.255 1560.1 255.939C1562.92 255.179 1567.5 252.235 1570.27 251.933C1571.87 251.759 1572.91 252.377 1573.89 252.292C1574.81 252.211 1579.81 250.084 1581.43 249.985C1582.24 249.937 1585.85 250.961 1586.4 250.39C1586.57 250.211 1586.13 248.928 1586.88 248.282C1587.92 247.38 1592.83 246.022 1594.44 245.691H1594.42Z" fill="#FCFCFC"/>
<path d="M1542.52 122.555C1544.19 120.14 1544.08 119.196 1547.46 118.771C1548.49 120.545 1548.29 122.918 1547.18 124.622C1546.53 125.617 1545.48 125.82 1544.94 126.622C1544.53 127.216 1544.55 128.269 1544.18 128.698C1543.38 129.627 1540.91 128.618 1541.58 131.524H1543.46C1543.61 132.293 1543.05 132.774 1542.55 133.199C1539.95 135.388 1536.84 135.628 1535.01 136.987C1533.88 137.832 1531.63 141.2 1530.22 142.568C1521.51 150.985 1503.95 163.275 1491.77 164.978C1480.54 166.549 1469.14 164.903 1457.87 165.997C1448.08 166.946 1438.84 170.767 1429.41 172.923C1423.22 174.343 1415.24 174.239 1408.98 175.603C1404.36 176.608 1397.99 179.344 1393.56 180.948C1388.39 182.816 1383.1 182.472 1380.43 188.577C1379.6 190.492 1380.08 191.997 1379.51 193.314C1379.16 194.106 1376.32 196.036 1375.48 196.361C1369.15 198.772 1362.64 198.121 1356.41 200.409C1354.87 200.975 1353.43 202.976 1352.15 203.221C1347.71 204.061 1339.03 205.127 1334.69 204.651C1333 204.462 1331.32 203.339 1329.92 203.249C1319.49 202.584 1311.19 203.136 1300.93 200.197C1289.8 197.008 1285.18 198.366 1274.31 198.546C1272.48 198.579 1270.93 197.951 1269.12 198.008C1267.05 198.074 1265.23 199.353 1263.9 199.437C1262.01 199.56 1259.25 198.536 1256.86 198.994C1255.77 199.202 1255.41 200.183 1254.61 200.518C1252.14 201.546 1246.74 199.527 1243.14 199.905C1232.4 201.023 1221.53 204.066 1210.63 205.104C1206.8 205.467 1206.2 206.632 1203.3 207.717C1196.43 210.279 1182.94 213.063 1175.73 212.162C1173.83 211.921 1171.49 210.685 1169.53 210.35C1166.33 209.803 1162.25 210.265 1159.21 209.812C1157.3 209.524 1154.8 207.491 1153.07 207.467C1151.72 207.453 1150 208.326 1148.35 208.439C1140.6 208.963 1136.89 207.505 1128.28 209.604C1126.49 210.043 1125.65 211.463 1123.09 210.312L1124.03 212.671C1123.99 212.699 1124.21 213.525 1123.73 213.638C1122.83 213.846 1121.84 213.176 1121.04 213.289C1120.64 213.346 1120.14 213.959 1119.52 214.072C1118.64 214.233 1103.67 211.794 1102.02 211.331C1099.78 210.704 1097.74 209.005 1095.85 208.533C1095.27 208.387 1090.04 207.571 1090.53 209.128C1090.71 209.694 1094.68 209.883 1095.64 210.161C1098.05 210.85 1099.58 212.388 1102.69 213.015C1109.69 214.426 1116.98 214.804 1124.03 214.558C1123.77 215.733 1124.65 215.521 1125.28 215.884C1126.43 216.544 1127.73 217.464 1128.87 217.974C1129.42 218.215 1132.59 218.21 1131.58 219.271C1130.78 220.097 1118.87 223.494 1117.16 223.541C1113.07 223.659 1110.77 224.201 1107.23 224.456C1101.61 224.857 1099.69 221.593 1094.06 225.895C1093.6 226.249 1092.78 226.235 1092.54 226.471C1091.77 227.235 1092.2 231.066 1090.56 232.75C1089.77 233.566 1084.73 235.935 1083.58 236.147C1077.3 237.317 1070.47 235.383 1064.33 235.298C1061.68 235.26 1057.99 236.114 1055.15 236.02C1054.22 238.331 1051.46 239.134 1050.23 240.539C1049.26 241.653 1049.05 243.531 1047.84 244.757C1044 248.668 1039.22 247.446 1036.18 253.853C1035.84 254.561 1035.87 255.976 1035.79 256.056C1035.65 256.193 1032.34 256.193 1031.89 256.085C1031.29 255.939 1031.38 254.457 1030.39 254.66C1029.09 254.924 1029.3 257.434 1028.96 258.425C1028.82 258.845 1027.89 259.246 1027.89 259.604C1027.89 259.817 1030.12 262.515 1026.84 261.265C1027.58 259.42 1028.27 254.004 1028.2 252.037C1028.17 251.169 1026.88 249.683 1027.35 249.032C1027.5 248.824 1030.75 247.418 1031.79 246.625C1039.35 240.889 1047.67 228.834 1056.91 225.985C1062.75 224.183 1068.01 227.353 1073.77 227.782C1076.09 227.957 1090.89 226.928 1091.95 225.872C1093.01 224.815 1090.35 224.89 1089.81 224.914C1084.92 225.131 1080.3 226.73 1075.19 226.367C1070.65 226.041 1065.98 223.928 1061.29 224.461C1059.92 223.253 1068.12 220.503 1068.71 220.328C1071.84 219.389 1082.56 218.101 1084.12 216.964C1085.31 216.106 1084.37 214.582 1082.51 214.761C1076.7 215.313 1067.13 218.436 1061.75 220.913C1050.74 225.985 1044.27 231.203 1035.1 238.605C1029.72 242.946 1017.58 243.691 1011.69 239.865C1008.07 237.511 1006.99 233.93 1001.74 235.472C1000.91 235.718 999.881 235.732 1000.44 236.968C1000.88 237.949 1004.17 237.874 1005.16 238.85C1007.5 241.148 1004.23 240.837 1003.14 241.096C991.837 243.766 978.972 244.271 968.644 249.065C958.279 253.877 952.981 260.638 940.149 256.217C935.549 254.632 927.368 247.876 932.723 242.865C935.171 240.572 936.822 242.073 938.79 241.79C939.38 241.705 939.856 240.964 941.215 240.936C942.578 240.903 944.239 242.29 944.286 240.049L943.347 239.582C946.452 238.039 954.349 244.658 950.4 246.871C948.811 247.762 941.139 249.234 939.323 249.05C936.049 248.72 936.511 244.578 935.558 244.3C931.864 244.144 935.332 250.593 936.973 250.905C939.795 251.442 945.97 250.527 948.721 249.433C949.169 249.253 952.863 247.314 953.047 247.159C955.293 245.215 951.188 238.652 948.07 239.577C947.928 238.883 948.268 238.558 948.768 238.157C949.617 237.468 957.043 234.911 958.676 234.383C961.332 233.524 963.908 233.373 966.592 232.392C975.504 229.127 978.915 221.036 987.238 217.653C994.093 214.87 997.791 215.011 1004.55 210.435C1005.42 209.85 1010.85 205.958 1011.06 205.613C1012.04 204.023 1009.97 202.075 1008.44 202.499C1006.3 204.537 1003.75 206.009 1001.42 207.779C1000.68 208.349 1000.6 209.35 999.367 209.968C994.663 212.308 987.256 211.874 981.949 215.091C979.019 216.87 974.877 222.706 971.079 222.489C969.215 222.385 963.507 219.361 961.596 218.281C958.577 216.573 953.123 211.742 950.16 211.317C948.811 211.124 947.442 211.426 946.065 211.166C943.05 210.605 926.835 205.094 925.169 203.282C924.207 202.24 924.731 200.211 922.763 200.055C921.607 199.966 919.215 202.023 917.625 202.278C916.371 202.48 905.576 201.82 905.166 201.348C905.251 199.754 906.605 195.743 903.698 198.267C901.009 200.603 901.372 201.532 897.145 202.565C890.493 204.188 882.638 204.047 877.599 198.961C876.344 197.692 870.447 190.134 873.372 189.171C876.009 188.299 881.053 189.775 883.676 189.61C885.487 189.492 886.766 187.982 888.431 187.723C893.045 187.006 900.344 188.034 905.383 187.685C910.492 187.331 916.555 186.317 921.839 185.741C923.976 185.51 927.123 184.298 928.962 184.364C935.638 184.604 946.301 190.247 953.557 191.412C958.473 192.205 961.997 191.879 966.724 191.469C975.603 190.7 977.561 190.686 986.204 192.266C997.541 194.337 1004.98 190.455 1015.79 190.011C1031.06 189.384 1048.03 190.832 1063.93 190.54C1080.22 190.242 1095.56 191.266 1111.99 189.539C1113.26 189.407 1114.37 188.501 1115.81 188.591C1116.46 188.634 1120.54 190.955 1121.93 191.474C1136.63 196.989 1151.23 199.173 1166.21 202.792C1166.58 202.881 1166.51 203.731 1166.79 203.745C1168.1 203.811 1171.3 202.886 1172.9 202.797C1184.25 202.145 1193.85 201.334 1204.94 198.513C1214.36 196.116 1225.46 190.865 1235.17 191.474C1239.02 191.714 1242.95 193.012 1246.96 192.88C1258.97 192.483 1270.1 186.676 1282.34 187.228C1296.81 187.879 1311.38 194.38 1325.34 196.126C1341.13 198.102 1352.39 193.384 1366.67 188.501C1369.41 187.563 1378.34 186.025 1379.54 183.449C1380.21 182.005 1379.27 181.42 1377.89 181.561V178.259C1387.01 173.348 1391.8 171.267 1401.95 168.823C1402.76 169.724 1404.23 169.611 1403.83 168.351C1406.36 167.799 1408.24 167.337 1410.91 166.936C1412.32 167.573 1417.71 168.262 1417.99 165.993C1418.3 166.002 1418.62 165.96 1418.93 165.993C1419.59 166.063 1421.59 167.531 1421.29 165.521C1421.59 165.478 1421.93 165.554 1422.23 165.521C1422.96 166.389 1423.36 166.115 1423.18 165.049C1423.63 165.03 1424.16 165.002 1424.59 165.049C1425.14 165.11 1426.74 166.568 1426.48 164.577C1426.77 164.525 1427.12 164.62 1427.42 164.577C1428.15 165.445 1428.55 165.172 1428.37 164.105C1429.26 164.058 1430.31 164.044 1431.2 164.105C1431.76 164.143 1433.88 165.667 1433.56 163.634C1434.38 163.525 1435.17 163.247 1435.92 163.162C1436.4 163.105 1438.62 164.025 1438.27 162.218C1439.62 161.775 1440.83 161.61 1442.05 161.275C1442.81 162.124 1443.16 161.888 1442.99 160.803C1443.27 160.732 1443.66 160.874 1443.94 160.803C1444.67 161.671 1445.05 161.397 1444.88 160.331C1445.15 160.26 1445.55 160.402 1445.82 160.331C1445.56 162.058 1447.18 161.364 1447.24 159.859C1450.8 158.987 1454.88 157.142 1458.56 157.5C1459.07 157.552 1460.72 159.024 1460.45 157.029C1461.38 156.986 1462.35 157.109 1463.28 157.029C1464.04 157.878 1464.39 157.637 1464.22 156.557C1465.42 156.514 1466.81 156.477 1468 156.557C1468.4 156.585 1469.65 158.005 1469.41 156.085C1470.51 156.038 1471.62 156.09 1472.71 156.085C1472.2 157.486 1475.03 157.609 1474.6 156.085C1476.48 156.08 1478.38 156.109 1480.26 156.085C1480 157.515 1480.99 156.991 1481.89 157.029C1482.99 157.071 1484.14 157.066 1485.24 157.029C1486.14 156.996 1487.13 157.51 1486.86 156.085C1488.77 156.043 1490.82 155.415 1492.53 155.613C1492.66 155.627 1494.15 157.123 1493.94 155.141C1494.99 154.948 1496.28 154.877 1497.24 154.67C1498.01 155.514 1498.35 155.283 1498.19 154.198C1498.48 154.146 1498.83 154.25 1499.13 154.198C1499.86 155.066 1500.25 154.792 1500.07 153.726C1500.38 153.684 1500.71 153.759 1501.02 153.726C1501.46 153.679 1503.73 154.594 1503.38 152.783C1507.44 151.16 1510.11 147.824 1513.6 145.314C1517.09 142.804 1529.69 133.633 1532.63 132.968C1533.44 136.426 1536.47 132.755 1533.1 132.968C1535.6 130.382 1538.32 128.854 1540.65 125.891C1541.81 126.136 1541.69 125.485 1541.59 124.475C1542.08 123.805 1542.25 122.999 1542.53 122.588L1542.52 122.555Z" fill="#FCFCFC"/>
<path d="M1105.65 244.748C1105.3 247.81 1108.87 246.097 1110.09 246.206C1115.12 246.673 1125.52 249.928 1130.64 251.608C1138.84 254.297 1148.09 259.454 1156.03 261.6C1162.21 263.27 1175.43 264.87 1181.61 264.563C1184.67 264.412 1187.6 264.488 1190.68 263.959C1192.06 263.723 1198.31 261.435 1198.59 261.732C1199.79 263.001 1195.2 264.572 1194.34 264.794C1190.04 265.912 1181.84 265.29 1178.81 267.191C1175.35 269.361 1181.93 271.39 1183.19 272.178C1185.66 273.73 1186.28 277.23 1188.53 278.146C1189.19 278.41 1190.1 278.226 1190.92 278.599C1191.96 279.066 1193.11 280.693 1194.23 280.972C1194.5 281.038 1199.25 281.113 1199.72 281.071C1201.3 280.934 1202.42 279.264 1204.01 279.146L1216.99 280.604C1217.51 282.656 1215.97 281.712 1215.33 282.481C1214.1 283.958 1218.52 284.175 1219.46 284.505C1223.2 285.831 1226.17 286.166 1229.4 287.775C1232.29 289.219 1233.56 287.648 1236.11 287.676C1237.7 287.695 1240.29 288.917 1242.26 289.11C1243.48 289.233 1245.23 288.284 1246.13 289.209C1246.63 289.728 1246.51 291.068 1247.51 291.398C1248.69 291.79 1251.78 290.606 1254.47 291.483C1255.69 291.879 1261.09 294.724 1261.59 294.776C1262.68 294.889 1263.45 293.908 1264.45 293.814C1267.93 293.479 1270.37 294.385 1273.39 295.21C1277.65 296.376 1285.2 295.158 1288.24 297.357C1291.28 299.555 1291.02 299.136 1294.33 300.697C1295.29 301.155 1296.97 302.91 1298.04 303.165C1299.39 303.485 1302.84 302.174 1303.33 305.137C1284.82 306.071 1274.56 301.957 1257.3 297.626C1228.15 290.313 1199.09 284.303 1169.63 278.665C1152.33 275.353 1135.31 272.536 1118.75 266.332C1108.75 262.586 1097.89 255.571 1087.02 256.076C1079.9 256.406 1073.14 258.453 1066.23 259.807C1062.39 260.558 1059.28 260.251 1055.18 261.732C1055.4 261.081 1055.47 259.84 1055.88 259.369C1056.05 259.166 1060.5 258.057 1061.06 258.038C1063.67 257.963 1065.13 259.001 1068.51 258.293C1070.73 257.831 1069.36 256.977 1069.87 256.151C1070.57 255 1074.02 256.769 1075.22 256.566C1075.74 256.477 1075.14 255.467 1075.77 255.108C1076.2 254.863 1081 254.217 1081.84 254.193C1084.49 254.108 1088.22 255.241 1090.28 255.005C1092.33 254.769 1091.94 254.207 1095.52 254.231C1098.2 254.25 1099.12 252.792 1099.74 252.731C1102.01 252.509 1108.96 254.703 1108.5 250.197C1108.28 248.041 1101.4 246.291 1105.66 244.753L1105.65 244.748Z" fill="#FCFCFC"/>
<path d="M1024.03 268.808C1021.47 268.851 1018.18 268.502 1015.76 268.794C1012.54 269.186 1012.11 270.549 1008.13 268.903C1006.48 268.219 999.301 262.458 999.032 261.014C998.673 259.089 1000.02 257.396 996.909 257.476C995.829 257.504 994.885 258.217 993.701 257.882C992.441 257.528 991.691 255.103 992.993 254.513C993.724 254.183 999.24 252.923 1000.24 252.805C1006.64 252.041 1013 253.961 1019.43 252.654C1021.43 252.249 1022.99 250.819 1024.97 250.876C1025.32 251.225 1024.6 258.302 1024.3 259.401C1023.78 261.255 1019.93 264.322 1024.03 264.557C1023.98 264.609 1024.14 265.152 1023.89 265.345C1023.26 265.831 1022.39 265.293 1022.12 266.666C1021.65 269.058 1024.24 266.728 1024.02 268.804L1024.03 268.808Z" fill="#FCFCFC"/>
<path d="M1367.96 291.454C1365.85 292.431 1363.97 294.016 1361.85 295.006C1346.65 302.093 1322.94 304.107 1306.16 305.136L1308.82 302.385C1311.05 299.734 1313.23 300.876 1315.81 300.39C1317.42 300.088 1319.26 298.885 1321 299.017C1324.14 299.253 1328.02 300.371 1331.41 299.956C1332.98 299.767 1334.37 298.592 1335.69 298.55C1337.61 298.484 1338.58 300.692 1340.76 299.385C1341.37 299.017 1341.43 298.21 1341.89 298.068C1343.75 297.488 1347.21 297.479 1349.09 298.068C1348.33 296.299 1351.71 296.228 1353.11 296.134C1354.1 296.068 1355.04 296.573 1355.85 296.497C1357.43 296.346 1359.57 292.95 1361.86 292.176C1362.47 291.968 1363.04 292.36 1363.42 292.265C1364.39 292.015 1366.05 289.647 1367.96 291.463V291.454Z" fill="#FCFCFC"/>
<path d="M1105.65 244.748C1108.31 243.786 1114.9 245.611 1117.92 246.399C1126.49 248.636 1136.06 252.216 1144.46 255.236C1150.08 257.255 1155.49 260.661 1161.56 261.256C1167.65 261.846 1172.3 261.794 1178.41 263.657C1178.76 263.766 1179.73 265.365 1181.61 264.563C1175.44 264.865 1162.22 263.27 1156.03 261.6C1148.09 259.458 1138.84 254.297 1130.64 251.608C1125.52 249.928 1115.12 246.673 1110.09 246.206C1108.88 246.093 1105.3 247.81 1105.65 244.748Z" fill="#141914"/>
<path d="M1354.75 261.732L1354.28 262.204C1343.83 254.49 1333.85 246.531 1321.25 242.162C1320.89 242.04 1316.67 241.535 1317.95 240.502C1323.02 240.157 1327.73 242.766 1332.12 244.965C1339.83 248.814 1349.25 255.15 1354.75 261.732H1354.75Z" fill="#141914"/>
<path d="M1124.05 214.553C1117 214.799 1109.71 214.421 1102.71 213.011C1099.6 212.383 1098.07 210.845 1095.66 210.156C1094.7 209.883 1090.73 209.689 1090.55 209.123C1090.06 207.561 1095.29 208.382 1095.87 208.529C1097.76 208.996 1099.8 210.699 1102.04 211.326C1103.69 211.789 1118.66 214.228 1119.54 214.067C1120.16 213.954 1120.66 213.341 1121.06 213.284C1121.86 213.171 1122.85 213.846 1123.74 213.633C1124.23 213.52 1124.01 212.694 1124.05 212.666C1124.57 212.322 1134.86 212.232 1136.32 212.907C1136.32 213.968 1135.5 214.015 1134.69 214.105C1131.78 214.435 1127.16 214.445 1124.05 214.553Z" fill="#141914"/>
<path d="M1053.75 262.203C1043.99 266.346 1043.58 269.563 1031.58 268.808C1033.25 266.916 1036.96 268.143 1038.31 267.799C1039.09 267.601 1040.33 265.85 1041.84 265.586C1043.17 265.355 1044.95 266.331 1045.93 265.558C1046.53 265.086 1045.97 264.09 1046.28 263.699C1046.63 263.255 1052.74 261.208 1053.75 262.203H1053.75Z" fill="#FCFCFC"/>
<path d="M1362.3 269.28C1361.55 269.988 1355.73 264.675 1356.64 263.623C1357.12 263.067 1360.24 267.332 1361.13 267.383L1362.3 269.28Z" fill="#FCFCFC"/>
<path d="M1025.45 268.808C1025.29 267.308 1028 266.949 1028.98 266.897C1031.08 266.784 1030.68 266.916 1030.64 268.808C1028.57 268.7 1027.3 268.822 1025.45 268.808Z" fill="#FCFCFC"/>
<path d="M1354.75 261.731C1354.99 262.01 1356.72 261.769 1356.16 263.619C1354.51 263.642 1354.39 262.283 1354.28 262.203L1354.75 261.731Z" fill="#FCFCFC"/>
<path d="M1370.32 290.511C1370.04 290.629 1369.72 290.827 1369.38 290.982C1369.33 290.18 1369.21 289.878 1370.08 290.044L1370.32 290.511Z" fill="#FCFCFC"/>
<path d="M977.273 258.005C978.594 259.585 974.697 263.369 974.15 265.053C972.211 266.157 970.031 267.45 967.889 268.101C966.097 268.648 958.317 268.87 960.397 271.814C961.733 273.706 962.483 272.234 962.167 276.06C961.954 278.631 959.812 284.265 958.557 286.605C957.633 288.336 955.769 288.232 955.33 290.497C954.967 292.375 956.477 293.162 956.6 294.998C956.784 297.843 955.802 301.442 953.5 303.244C950.485 305.599 948.806 304.641 945.244 304.665C944.371 301.461 947.173 299.565 947.565 296.838C947.956 294.111 947.645 290.218 947.626 287.421C947.598 283.312 947.815 285.595 949.164 282.396C950.245 279.834 951.967 273.564 952.585 270.715C952.854 269.469 952.566 267.096 953.009 266.422C953.297 265.988 957.397 264.874 958.477 264.341C962.134 262.525 968.239 256.868 971.876 256.995C972.532 257.019 977.099 257.788 977.273 258V258.005Z" fill="#FCFCFC"/>
<path d="M942.842 285.836C943.8 286.642 944.135 297.555 943.819 299.23C943.536 300.711 941.252 302.216 940.776 303.264C940.035 304.905 940.861 307.307 937.237 305.821C934.426 304.669 930.057 300.249 929.41 297.14C927.165 286.322 935.034 273.277 936.28 262.676C940.172 262.813 942.323 263.025 943.592 266.917C944.588 269.984 946.211 275.909 945.116 278.825C943.758 282.453 938.775 281.708 938.601 283.675C938.332 286.676 942.38 285.444 942.842 285.836Z" fill="#FCFCFC"/>
<path d="M998.39 283.741C996.881 285.288 993.786 287.048 991.63 287.109C990.252 287.147 983.892 281.693 984.992 287.798C985.883 292.747 990.705 290.648 992.177 294.78C992.904 296.823 990.549 304.386 989.134 306.202C985.916 310.331 981.038 306.278 980.264 302.433C978.571 294.054 980.67 281.193 985.888 274.3C987.02 272.8 988.266 272.003 990.167 272.21C992.068 272.418 1000.39 277.022 1000.84 278.584C1001.36 280.367 999.593 282.514 998.395 283.741H998.39Z" fill="#FCFCFC"/>
<path d="M963.643 230.118L941.474 237.671L952.165 221.21C953.877 220.64 955.307 223.22 956.609 224.187C957.991 225.216 962.469 227.674 963.162 228.485C963.657 229.061 963.771 229.339 963.643 230.118Z" fill="#FCFCFC"/>
<path d="M885.784 186.742C886.686 188.167 884.322 188.568 883.185 188.62C880.604 188.733 877.679 187.667 874.948 188.134C874.471 185.449 879.882 185.695 881.732 185.836C882.307 185.879 885.676 186.567 885.784 186.742Z" fill="#FCFCFC"/>
<path d="M1377.87 178.226V181.528C1375.31 181.788 1371.44 184.5 1368.44 183.882C1370.95 181.292 1374.7 179.933 1377.87 178.226Z" fill="#FEFEFE"/>
<path d="M1417.97 165.959C1417.69 168.228 1412.31 167.54 1410.9 166.903C1413.12 166.568 1415.58 165.898 1417.97 165.959Z" fill="#FEFEFE"/>
<path d="M1486.85 156.051C1487.12 157.476 1486.13 156.962 1485.23 156.995C1484.13 157.033 1482.98 157.038 1481.88 156.995C1480.98 156.957 1479.99 157.481 1480.25 156.051C1482.45 156.023 1484.66 156.099 1486.86 156.051H1486.85Z" fill="#FEFEFE"/>
<path d="M1533.09 132.935C1536.46 132.722 1533.43 136.393 1532.62 132.935C1532.75 132.902 1532.93 132.944 1533.09 132.935Z" fill="#FEFEFE"/>
<path d="M1421.28 165.488C1421.58 167.498 1419.57 166.031 1418.92 165.96C1419.61 165.205 1420.52 165.601 1421.28 165.488Z" fill="#FEFEFE"/>
<path d="M1433.54 163.6C1433.86 165.634 1431.75 164.11 1431.18 164.072C1431.88 163.331 1432.77 163.704 1433.54 163.6Z" fill="#FEFEFE"/>
<path d="M1503.37 152.749C1503.72 154.561 1501.45 153.645 1501.01 153.693C1501.59 152.914 1502.62 153.046 1503.37 152.749Z" fill="#FEFEFE"/>
<path d="M1438.26 162.186C1438.61 163.992 1436.38 163.073 1435.9 163.129C1436.51 162.379 1437.45 162.45 1438.26 162.186Z" fill="#FEFEFE"/>
<path d="M1426.47 164.544C1426.72 166.535 1425.12 165.077 1424.58 165.016C1425.13 164.36 1425.85 164.648 1426.47 164.544Z" fill="#FEFEFE"/>
<path d="M1447.22 159.826C1447.17 161.331 1445.55 162.025 1445.81 160.298C1446.17 160.204 1446.61 159.977 1447.22 159.826Z" fill="#FEFEFE"/>
<path d="M1460.43 156.995C1460.7 158.991 1459.06 157.519 1458.55 157.467C1459.09 156.872 1459.74 157.028 1460.43 156.995Z" fill="#FEFEFE"/>
<path d="M1474.59 156.052C1475.02 157.576 1472.19 157.453 1472.7 156.052C1473.33 156.052 1473.96 156.052 1474.59 156.052Z" fill="#FEFEFE"/>
<path d="M1403.82 168.318C1404.22 169.578 1402.74 169.691 1401.93 168.79C1402.57 168.634 1403.15 168.465 1403.82 168.318Z" fill="#FEFEFE"/>
<path d="M1469.4 156.051C1469.63 157.972 1468.38 156.552 1467.98 156.523C1468.21 155.905 1468.88 156.075 1469.4 156.051Z" fill="#FEFEFE"/>
<path d="M1493.93 155.108C1494.14 157.09 1492.65 155.594 1492.52 155.58C1492.92 155.09 1493.43 155.203 1493.93 155.108Z" fill="#FEFEFE"/>
<path d="M1541.58 124.442C1541.68 125.452 1541.8 126.103 1540.64 125.858C1540.81 125.641 1541.23 124.919 1541.58 124.442Z" fill="#FEFEFE"/>
<path d="M1423.16 165.016C1423.34 166.082 1422.95 166.355 1422.22 165.487C1422.27 165.483 1422.33 165.053 1423.16 165.016Z" fill="#FEFEFE"/>
<path d="M1428.35 164.072C1428.53 165.139 1428.14 165.412 1427.41 164.544C1427.46 164.535 1427.52 164.115 1428.35 164.072Z" fill="#FEFEFE"/>
<path d="M1442.98 160.77C1443.14 161.855 1442.8 162.091 1442.03 161.241C1442.09 161.227 1442.31 160.939 1442.98 160.77Z" fill="#FEFEFE"/>
<path d="M1444.86 160.298C1445.04 161.364 1444.65 161.638 1443.92 160.77C1443.97 160.755 1444.21 160.472 1444.86 160.298Z" fill="#FEFEFE"/>
<path d="M1464.21 156.523C1464.37 157.604 1464.02 157.844 1463.26 156.995C1463.32 156.995 1463.37 156.556 1464.21 156.523Z" fill="#FEFEFE"/>
<path d="M1498.18 154.165C1498.34 155.25 1498 155.481 1497.23 154.637C1497.29 154.627 1497.4 154.297 1498.18 154.165Z" fill="#FEFEFE"/>
<path d="M1500.06 153.693C1500.24 154.76 1499.85 155.033 1499.12 154.165C1499.17 154.156 1499.27 153.811 1500.06 153.693Z" fill="#FEFEFE"/>
<path d="M30.4506 32.916C36.4376 31.8073 41.5281 30.8826 47.6897 31.01C59.4466 31.2553 70.9534 33.7935 82.5924 34.7937C85.1589 35.0154 90.825 35.591 92.9151 34.756C94.5191 34.1143 96.8498 32.0809 94.7928 30.5854C93.9341 29.9626 90.8251 30.6656 89.2351 30.5052C86.4469 30.2221 83.1066 28.9907 80.1674 28.7218C79.4928 28.6605 77.2046 29.4201 76.6998 28.6416C76.6243 28.5284 76.6384 27.3159 76.6809 27.264C77.1857 26.646 90.641 24.9806 92.4669 24.8768C106.564 24.0983 120.878 29.203 133.616 34.7182C151.855 42.6159 165.872 58.0999 182.988 68.3801C184.682 69.3992 186.73 69.2341 186.14 71.6024C176.294 71.4468 166.75 74.9993 156.885 74.4332C156.729 77.1035 157.153 77.8347 159.616 78.5377C162.768 79.4388 173.397 80.1606 176.94 80.1276C187.187 80.0333 198.76 76.4288 209.022 75.8532C236.357 74.3199 257.031 86.9732 282.597 88.1338C290.14 88.4782 297.618 87.478 305.115 88.733C331.28 93.1112 362.517 110.813 388.168 107.798C390.301 107.548 395.368 106.529 394.669 103.684H374.383C375.364 100.886 379.733 100.83 382.181 99.9238C399.694 93.4556 418.999 85.1569 437.819 84.3218C444.764 84.0151 451.722 84.8077 458.573 84.836C470.207 84.8832 479.345 84.284 491.088 85.8174C511.167 88.4358 530.86 95.3663 551.085 94.267C564.975 93.5122 573.467 89.87 586.214 86.4637C597.518 83.4443 605.105 84.6945 616.112 83.8075C627.515 82.8876 638.715 77.3299 650.146 75.8532C656.416 75.0418 664.762 73.9048 670.905 73.499C677.76 73.0414 684.667 75.7117 691.314 77.1365C708.497 80.8259 725.556 86.5628 741.116 94.8002C755.321 102.32 773.509 99.8907 785.53 109.831C791.663 114.903 794.692 120.196 799.268 126.287C808.595 138.709 827.08 142.191 836.931 154.203C845.768 164.983 846.249 178.429 851.495 190.12C853.429 194.432 856.774 196.951 856.104 202.547C855.821 204.929 852.415 205.25 850.514 204.802C844.857 203.462 840.568 196.13 838.879 190.941C838.427 189.549 837.488 183.241 837.19 182.958C837.058 182.831 834.685 183.062 833.553 182.581C831.208 181.59 821.829 169.507 820.508 166.851C819.984 165.799 819.857 163.728 819.734 163.615C819.583 163.469 817.46 163.671 816.734 163.549C812.653 162.874 808.978 163.219 804.996 161.605C802.887 160.751 797.018 157.387 795.098 156.062C794.55 155.684 794.418 154.859 793.805 154.406C791.446 152.665 788.931 154.41 786.488 154.627C775.018 155.642 764.696 148.829 758.303 139.889C757.468 138.723 756.595 135.789 755.26 135.374C752.406 134.482 747.235 138.157 746.367 140.931C746.089 144.932 746.098 147.39 747.561 151.103C754.18 167.899 771.914 179.24 779.732 194.418C781.727 198.296 782.402 201.452 781.524 205.807C780.647 210.161 772.664 208.751 769.881 207.099C768.621 206.349 766.729 204.377 765.729 203.231C757.397 193.71 750.887 181.165 740.271 173.961C735.407 170.659 729.713 168.408 724.967 164.733C723.858 163.874 723.009 162.294 722.424 161.855C708.402 151.278 694.14 145.984 686.379 128.783C684.601 124.839 684.308 120.305 682.383 116.266C680.208 111.695 675.693 104.925 671.292 102.353C668.253 100.58 658.737 99.2963 654.855 98.9755C637.417 97.5224 619.791 99.9285 606.27 111.709C605.251 112.596 604.524 114.073 603.161 115.205C597.334 120.05 589.352 121.8 582.591 124.829C572.372 129.41 562.427 134.732 551.765 138.351C550.477 138.789 548.891 138.94 547.533 139.077C547.547 139.988 549.486 139.53 550.066 139.483C552.916 139.242 556.214 138.45 558.889 137.435C561.564 136.421 564.659 135.345 567.48 134.251C576.01 130.944 596.377 123.145 602.958 118.305C606.237 115.894 611.747 109.393 615.442 108.614C622.613 107.104 635.167 107.062 642.616 107.444C644.73 107.553 655.336 108.671 656.525 109.576C657.605 110.397 656.836 113.516 656.416 114.676C653.817 121.81 636.068 135.176 629.855 140.974C618.551 151.528 612.634 161.28 596.962 166.564C580.685 172.05 563.611 175.174 547.283 180.576C537.682 183.751 529.006 190.219 519.693 194.031C505.053 200.023 481.294 207.477 465.678 208.425C459.162 208.821 454.185 209.114 447.708 209.793C441.39 210.458 430.52 208.869 423.703 208.42C407.903 207.378 385.47 206.925 370.839 200.895C358.389 195.758 349.685 192.568 336.267 189.705C313.918 184.94 296.533 190.403 274.633 190.997C248.685 191.705 217.396 190.823 192.075 187.214C155.144 181.944 133.715 170.531 102.502 151.726C98.7888 149.49 96.1091 146.178 91.4384 145.314C89.103 144.885 87.8198 146.093 85.7581 146.484C81.4459 147.31 72.9821 149.655 69.3163 149.9C67.4103 150.027 61.7253 147.919 63.3765 151.688C66.3205 158.416 82.3895 154.396 88.6076 155.241C90.0372 155.434 91.9385 156.146 93.3349 156.647C94.2125 156.963 99.1332 159.01 99.5248 159.317C100.077 159.746 99.8645 160.388 99.7843 160.954C98.8171 167.63 88.4472 172.862 83.9936 177.278C76.3129 184.897 69.5617 200.023 65.0136 209.722C62.0414 216.063 59.4654 224.131 54.9835 229.415C54.3135 230.203 51.3743 234.001 50.2798 232.963C50.0439 232.741 52.1339 229.613 50.643 226.702C47.8831 221.314 46.2318 232.156 45.7931 233.434C42.1273 244.153 39.0796 255.288 38.9333 266.676C38.8531 272.668 39.3909 279.014 38.4757 285.09C37.5557 291.181 37.9567 273.693 38.9333 280.265L38.6504 283.783C39.0043 286.35 35.0788 273.777 33.989 275.763C33.0737 277.428 18.8635 207.963 17.9483 209.722L16.0612 123.254L8.74854 32.916H30.4506ZM124.803 73.9661C123.86 73.065 117.575 77.6036 116.16 78.2924C104.894 83.8028 94.9202 87.4309 86.5979 97.796C80.5731 105.297 81.3799 114.606 74.7843 123.254C67.2735 133.09 56.3281 137.209 48.1284 145.192C47.5764 145.729 46.8169 146.206 46.9631 147.088C48.0058 147.239 48.7795 146.664 49.6381 146.23C60.4373 140.771 78.0774 127.292 82.5829 115.955C85.0787 109.671 84.2436 104.821 89.1785 98.9613C98.5718 87.813 111.013 85.9117 121.458 78.4009C122.982 77.3016 124.997 76.1788 124.803 73.9661ZM93.5803 110.393C93.184 110.162 92.6839 110.327 92.2546 110.294C95.0334 121.815 110.182 125.778 120.463 127.608C129.983 129.302 138.357 128.099 147.708 128.67C150.506 128.84 153.629 129.83 156.427 129.906C156.946 129.92 157.63 130.146 157.833 129.392C158.352 127.457 154.092 126.608 152.832 126.382C143.882 124.773 135.319 126.509 126.468 125.853C117.618 125.197 102.997 121.687 96.5101 114.766C95.7835 113.992 93.8115 110.525 93.585 110.393H93.5803ZM356.455 178.231C355.771 166.771 368.155 165.743 373.934 159.614C375.104 158.373 376.841 155.576 377.779 154.023C379.322 151.471 381.624 145.215 383.323 143.526C386.257 140.611 393.457 141.214 393.981 140.502C394.905 139.242 393.136 138.219 392.051 138.148C389.933 138.016 382.861 140.45 381.45 142.125C380.351 143.432 380.61 144.965 379.935 146.272C378.459 149.15 375.203 155.193 373.208 157.472C367.188 164.356 353.61 165.587 355.044 178.231H356.455ZM850.41 190.964C850.311 190.87 849.381 191.026 848.999 190.964C848.546 195.13 850.561 201.811 855.6 201.815L851.419 195.385C850.684 194.701 850.575 191.115 850.41 190.964ZM771.046 193.446C769.975 193.592 766.366 195.031 766.036 195.998C764.856 199.466 770.871 207.934 775.037 207.397C780.043 206.75 779.968 204.236 778.599 200.273C777.283 196.461 775.599 192.823 771.046 193.451V193.446Z" fill="#FCFCFC"/>
<path d="M6.86132 30.4862C10.7866 30.0333 38.5794 26.1505 42.4858 25.8438C49.7041 25.273 57.2857 25.7353 64.5937 24.8342C77.2375 23.2773 86.2864 18.8095 100.063 19.6823C114.221 20.5787 140.631 30.5334 152.322 38.6623C166.249 48.3527 186.333 68.8471 203.369 70.1776C216.263 71.1825 228.152 71.4514 241.051 73.5414C250.392 75.0558 265.98 80.2549 274.204 80.5285C276.511 80.604 279.766 79.6652 282.134 79.5991C308.337 78.8443 328.086 87.577 352.317 94.8472C362.206 97.8148 367.645 100.428 377.935 97.0788C406.138 87.8978 427.251 75.2209 458.625 76.7637C479.383 77.7827 500.005 80.1086 520.372 84.3689C529.331 86.2419 540.13 88.6574 549.193 89.0443C566.928 89.7944 584.955 79.6699 602.477 78.6555C609.483 78.2498 617.744 79.5 624.561 78.0941C628.151 77.3534 631.435 75.0086 634.837 73.7443C643.73 70.4323 656.657 68.7999 666.196 68.3046C676.962 67.7431 683.893 71.1825 693.876 73.6405C700.151 75.1832 706.548 75.9758 712.766 77.8677C730.222 83.18 743.616 94.4557 761.242 98.2724C769.414 100.042 775.632 99.6972 783.284 104.066C787.492 106.467 796.404 115.36 799.716 119.243C801.783 121.668 803.047 124.65 805.123 127.047C806.298 128.401 810.388 132.798 811.898 130.939L826.769 109.039C830.529 99.7444 837.695 90.6861 844.55 83.4159C847.065 80.7456 846.409 79.6604 847.56 76.9901C848.678 74.3953 858.869 60.0861 861.086 57.4912C863.62 54.5284 868.045 51.0513 869.711 47.211C870.456 45.4984 869.361 44.7153 870.008 43.3046C870.225 42.8281 875.731 35.1333 876.108 34.77C877.188 33.7321 878.259 34.0293 879.226 33.1707C883.421 29.4436 890.413 16.7997 894.791 11.4638C905.047 -1.03853 916.601 -2.34066 930.406 6.01466C949.678 17.6819 969.38 33.8595 988.034 46.9893C998.301 54.2123 1009.51 60.8126 1019.48 68.3848C1024.91 72.5129 1034.63 81.4061 1034.44 88.7989C1034.21 97.4704 1030.29 104.83 1025.84 111.85C1010.03 136.794 992.474 160.581 977.122 185.793L976.867 187.19C983.307 187.407 989.53 189.252 995.994 189.101C1002.46 188.95 1007.95 187.034 1013.96 186.312C1039.83 183.199 1065.21 186.987 1090.78 187.69C1099.92 187.94 1108.59 185.35 1117.22 185.307C1127.15 185.26 1139.13 190.101 1148.68 192.54C1161.31 195.762 1172.98 197.187 1186.05 195.63C1202.6 193.663 1217.7 184.505 1234.68 183.972C1237.01 183.902 1240.13 185.374 1242.7 185.326C1248.57 185.208 1257.27 181.679 1263.61 180.722C1292.37 176.372 1315.17 188.058 1342.29 189.091C1350.98 189.421 1355.55 184.237 1361.89 180.396C1370.21 175.353 1378.87 169.672 1388.26 167.144C1402.01 163.445 1416.78 161.869 1430.73 158.661C1438.43 156.892 1446.42 153.91 1454.14 152.816C1469.03 150.711 1489.47 154.047 1502.9 148.268C1506.08 146.899 1507.44 144.149 1510.03 142.182C1514.61 138.69 1520.53 136.218 1524.34 131.486C1527.42 127.651 1529.8 123.555 1533.58 119.97C1539.56 114.294 1546.67 108.213 1553.72 104.25C1556.4 102.74 1557.66 101.013 1559.84 99.5226C1563.49 97.0222 1569.21 95.4983 1573.48 94.2905C1580.38 92.3326 1571.2 96.0975 1578.14 94.2905V98.5366C1569.34 104.274 1575.1 99.8906 1565.82 104.557C1560.44 107.26 1553.8 111.478 1548.72 114.823C1547.24 115.795 1541.96 119.055 1541.14 119.979C1539.69 121.607 1541.43 121.744 1542.55 122.565C1542.26 122.975 1542.1 123.782 1541.6 124.452C1541.26 124.928 1540.83 125.65 1540.66 125.867C1538.34 128.83 1535.61 130.359 1533.11 132.944C1532.95 132.953 1532.78 132.911 1532.64 132.944C1529.71 133.609 1517.02 142.842 1513.61 145.291C1510.21 147.739 1507.46 151.136 1503.39 152.759C1502.64 153.056 1501.61 152.924 1501.03 153.703C1500.72 153.736 1500.39 153.66 1500.09 153.703C1499.29 153.82 1499.2 154.165 1499.14 154.174C1498.85 154.226 1498.5 154.122 1498.2 154.174C1497.43 154.306 1497.31 154.637 1497.26 154.646C1496.29 154.854 1495.01 154.924 1493.95 155.118C1493.45 155.212 1492.94 155.099 1492.54 155.59C1490.84 155.392 1488.78 156.019 1486.88 156.061C1484.68 156.109 1482.47 156.033 1480.27 156.061C1478.39 156.085 1476.49 156.057 1474.61 156.061C1473.98 156.061 1473.35 156.061 1472.72 156.061C1471.63 156.066 1470.52 156.014 1469.42 156.061C1468.9 156.085 1468.23 155.915 1468.01 156.533C1466.82 156.453 1465.43 156.491 1464.23 156.533C1463.39 156.566 1463.34 157 1463.29 157.005C1462.36 157.085 1461.39 156.963 1460.46 157.005C1459.76 157.038 1459.11 156.882 1458.57 157.477C1454.89 157.118 1450.81 158.963 1447.25 159.836C1446.63 159.987 1446.2 160.213 1445.83 160.308C1445.56 160.378 1445.16 160.237 1444.89 160.308C1444.24 160.482 1444 160.765 1443.94 160.779C1443.67 160.85 1443.27 160.709 1443 160.779C1442.34 160.949 1442.11 161.237 1442.06 161.251C1440.84 161.586 1439.63 161.751 1438.28 162.195C1437.48 162.459 1436.53 162.388 1435.92 163.138C1435.18 163.223 1434.39 163.502 1433.57 163.61C1432.8 163.714 1431.9 163.341 1431.21 164.082C1430.32 164.02 1429.27 164.035 1428.38 164.082C1427.54 164.124 1427.48 164.544 1427.43 164.554C1427.13 164.596 1426.78 164.502 1426.49 164.554C1425.87 164.657 1425.16 164.37 1424.6 165.025C1424.17 164.978 1423.63 165.007 1423.19 165.025C1422.35 165.063 1422.29 165.492 1422.24 165.497C1421.94 165.53 1421.6 165.455 1421.3 165.497C1420.54 165.61 1419.63 165.214 1418.94 165.969C1418.63 165.936 1418.31 165.978 1418 165.969C1415.6 165.908 1413.14 166.578 1410.92 166.913C1408.24 167.314 1406.37 167.776 1403.84 168.328C1403.17 168.474 1402.59 168.644 1401.96 168.8C1391.81 171.244 1387.02 173.324 1377.89 178.235C1374.72 179.943 1370.98 181.302 1368.46 183.892C1371.46 184.51 1375.34 181.797 1377.89 181.538C1379.28 181.396 1380.22 181.981 1379.55 183.425C1378.35 186.001 1369.42 187.539 1366.68 188.478C1352.39 193.361 1341.15 198.079 1325.35 196.102C1311.39 194.352 1296.82 187.855 1282.35 187.204C1270.11 186.652 1258.98 192.46 1246.97 192.856C1242.95 192.988 1239.03 191.695 1235.17 191.45C1225.47 190.842 1214.36 196.088 1204.95 198.489C1193.86 201.315 1184.26 202.122 1172.91 202.773C1171.31 202.863 1168.11 203.787 1166.8 203.721C1166.52 203.707 1166.59 202.858 1166.22 202.768C1151.23 199.154 1136.64 196.965 1121.94 191.45C1120.55 190.926 1116.47 188.605 1115.82 188.568C1114.39 188.478 1113.27 189.384 1112 189.516C1095.58 191.243 1080.23 190.219 1063.94 190.516C1048.04 190.804 1031.07 189.355 1015.79 189.988C1004.99 190.431 997.55 194.319 986.213 192.243C977.57 190.662 975.612 190.676 966.733 191.445C962.006 191.856 958.482 192.181 953.566 191.389C946.31 190.219 935.647 184.581 928.972 184.34C927.127 184.274 923.985 185.482 921.848 185.718C916.564 186.294 910.501 187.308 905.392 187.662C900.353 188.011 893.055 186.982 888.44 187.699C886.775 187.959 885.497 189.469 883.685 189.587C881.066 189.756 876.023 188.28 873.381 189.148C870.456 190.115 876.353 197.668 877.608 198.937C882.652 204.023 890.502 204.165 897.154 202.542C901.386 201.509 901.018 200.584 903.707 198.244C906.609 195.72 905.255 199.73 905.175 201.325C905.585 201.796 916.375 202.457 917.635 202.254C919.229 201.999 921.616 199.942 922.772 200.032C924.74 200.183 924.216 202.216 925.178 203.259C926.849 205.066 943.064 210.576 946.074 211.142C947.456 211.402 948.82 211.095 950.169 211.293C953.132 211.718 958.586 216.549 961.605 218.257C963.516 219.337 969.224 222.362 971.088 222.465C974.891 222.682 979.028 216.842 981.958 215.068C987.265 211.85 994.677 212.284 999.376 209.944C1000.61 209.331 1000.69 208.326 1001.43 207.755C1003.76 205.981 1006.31 204.514 1008.45 202.476C1009.98 202.051 1012.05 204 1011.07 205.59C1010.85 205.934 1005.42 209.826 1004.56 210.411C997.805 214.988 994.106 214.846 987.247 217.63C978.924 221.012 975.509 229.103 966.601 232.368C963.922 233.349 961.346 233.5 958.685 234.359C957.052 234.887 949.626 237.445 948.777 238.133C948.282 238.534 947.937 238.86 948.079 239.553C951.202 238.629 955.307 245.191 953.056 247.135C952.872 247.295 949.178 249.234 948.73 249.409C945.979 250.504 939.809 251.414 936.983 250.881C935.341 250.57 931.873 244.12 935.567 244.276C936.52 244.554 936.063 248.697 939.332 249.027C941.148 249.211 948.82 247.739 950.41 246.847C954.358 244.635 946.461 238.015 943.356 239.558L944.295 240.025C944.248 242.266 942.583 240.879 941.224 240.912C939.865 240.945 939.389 241.681 938.799 241.766C936.832 242.049 935.18 240.554 932.732 242.842C927.377 247.852 935.558 254.613 940.158 256.193C952.99 260.614 958.288 253.849 968.654 249.041C978.981 244.248 991.847 243.748 1003.15 241.073C1004.24 240.818 1007.51 241.124 1005.17 238.827C1004.17 237.85 1000.89 237.926 1000.45 236.944C999.895 235.708 1000.91 235.694 1001.75 235.449C1007 233.911 1008.08 237.487 1011.7 239.841C1017.59 243.672 1029.72 242.922 1035.1 238.582C1044.28 231.179 1050.74 225.961 1061.76 220.89C1067.14 218.413 1076.71 215.289 1082.52 214.737C1084.38 214.563 1085.32 216.082 1084.13 216.941C1082.57 218.073 1071.85 219.366 1068.72 220.305C1068.13 220.484 1059.93 223.234 1061.3 224.437C1065.99 223.904 1070.66 226.018 1075.2 226.343C1080.31 226.711 1084.93 225.112 1089.82 224.89C1090.36 224.867 1093.06 224.749 1091.96 225.848C1090.86 226.947 1076.1 227.933 1073.78 227.759C1068.02 227.329 1062.76 224.159 1056.92 225.961C1047.68 228.811 1039.36 240.865 1031.8 246.602C1030.75 247.395 1027.5 248.8 1027.36 249.008C1026.9 249.659 1028.18 251.145 1028.21 252.013C1028.28 253.981 1027.59 259.392 1026.85 261.241C1026.21 262.841 1024.93 263.676 1024.02 264.544C1019.93 264.308 1023.78 261.241 1024.29 259.387C1024.6 258.283 1025.32 251.211 1024.96 250.862C1022.98 250.806 1021.43 252.23 1019.43 252.641C1012.99 253.948 1006.63 252.027 1000.23 252.792C999.239 252.91 993.719 254.174 992.988 254.5C991.686 255.085 992.436 257.51 993.696 257.868C994.88 258.203 995.824 257.491 996.904 257.462C1000.01 257.382 998.669 259.076 999.027 261.001C999.296 262.44 1006.47 268.2 1008.13 268.889C1012.11 270.536 1012.53 269.172 1015.76 268.781C1018.18 268.488 1021.46 268.837 1024.03 268.795C1024.5 268.785 1024.97 268.795 1025.44 268.795C1027.3 268.809 1028.57 268.686 1030.63 268.795C1030.94 268.809 1031.26 268.776 1031.58 268.795C1043.58 269.55 1043.99 266.332 1053.75 262.19C1054.14 262.025 1054.7 261.883 1055.16 261.718C1059.27 260.241 1062.38 260.548 1066.21 259.793C1073.12 258.439 1079.89 256.391 1087.01 256.061C1097.88 255.556 1108.73 262.572 1118.73 266.318C1135.3 272.522 1152.32 275.334 1169.62 278.65C1199.08 284.288 1228.14 290.303 1257.28 297.611C1274.55 301.942 1284.8 306.056 1303.32 305.122C1304.26 305.075 1305.21 305.179 1306.15 305.122C1322.93 304.089 1346.64 302.079 1361.84 294.993C1363.96 294.002 1365.84 292.417 1367.95 291.44C1368.34 291.266 1368.88 291.19 1369.37 290.969C1369.71 290.813 1370.03 290.615 1370.31 290.497C1370.67 290.346 1370.99 290.134 1371.26 290.025C1380.43 286.26 1389.91 284.26 1399.8 283.42C1413.42 282.269 1425.64 286.048 1439.3 283.288C1467.86 277.513 1496.25 267.049 1525.3 264.082C1528.96 263.709 1533.3 264.063 1537.03 263.548C1549.78 261.803 1562.92 256.509 1575.53 253.919C1581.73 252.645 1588.13 251.966 1594.41 251.339V258.887C1590.25 260.194 1586.02 261.482 1581.77 262.525C1568.32 265.822 1554.59 268.87 1540.86 270.682C1536.65 271.239 1532.01 271.102 1527.76 271.734C1515.16 273.607 1502.85 278.542 1490.26 280.462C1475.78 282.67 1463.07 282.92 1448.33 286.189C1437.5 288.596 1433.53 289.577 1421.95 289.572C1402.83 289.563 1392.66 292.464 1374.79 298.508C1366.91 301.169 1358.09 305.868 1350.33 308.024C1344.92 309.524 1337.14 310.09 1331.39 310.784C1304.57 314.02 1287.77 313.93 1261.25 308.278C1234.19 302.513 1206.69 294.059 1179.81 287.336C1161.03 282.637 1141.75 280.438 1123.2 274.593C1116.25 272.399 1109.63 269.049 1102.36 267.601C1087.77 264.695 1076.91 265.568 1062.8 270.069C1058.3 271.507 1053.88 274.73 1049.5 276.107C1044.4 277.711 1039.07 277.617 1034.14 278.679C1025.13 279.367 1016.07 279.127 1007.05 279.424C1003.17 282.533 1001.34 287.194 998.263 290.926C997.272 292.129 996.064 291.606 996.163 294.012C996.418 300.15 996.47 305 992.62 310.284C990.37 313.374 989.134 314.435 985.076 314.11C979 313.624 974.89 306.137 974.938 300.621C974.99 294.215 974.475 287.732 976.504 281.429C978.24 276.046 983.689 271.545 987.247 267.167C988.553 261.591 984.822 267.337 983.685 268.323C982.444 269.394 979.514 271.295 978.037 272.111C976.377 273.027 969.158 275.636 968.606 276.362C967.79 277.438 967.219 282.731 966.554 284.689C965.601 287.492 961.176 293.087 961.006 293.747C960.492 295.767 960.822 298.211 960.279 300.588C958.642 307.764 954.042 314.737 945.847 310.406C944.3 309.59 943.701 307.561 941.832 308.047C937.591 309.156 934.558 308.576 930.231 307.151C925.905 305.726 924.358 299.593 924.183 295.531C923.791 286.576 928.769 271.625 930.93 262.275C931.448 260.019 933.496 256.948 931.312 255.127C928.924 253.136 927.934 257.5 926.853 259.142C911.492 282.486 895.871 306.193 879.269 328.561C872.409 337.803 870.418 348.069 858.072 352.655C844.413 357.731 835.865 350.466 825.254 343.252C798.471 325.046 769.8 305.278 744.107 285.694C734.19 278.131 725.665 270.847 727.882 256.906C729.024 249.725 731.383 246.88 735.186 241.091C742.989 229.207 751.778 217.922 759.586 206.033L759.742 204.523C752.67 194.186 746.678 184.147 735.61 177.665C721.093 169.163 707.529 160.553 694.286 150.108C691.937 148.253 688.115 144.847 686.242 142.583C684.907 140.969 682.482 135.709 681.779 135.251C681.279 134.93 675.665 134.303 674.67 134.303C661.695 134.26 652.977 139.903 642.39 146.413C631.261 153.259 622.386 161.058 610.436 166.828C599.755 171.989 583.105 179.967 571.759 181.934C564.229 183.241 555.945 183.246 548.556 185.152C538.328 187.794 528.987 195.055 519.532 199.06C512.762 201.924 506.001 204.632 499.245 207.552C468.315 220.918 428.614 214.983 395.844 211.709C376.237 209.751 362.866 204.245 344.278 200.055C322.76 195.206 301.921 197.838 280.275 198.522C247.84 199.551 212.885 196.696 180.7 192.842C163.758 190.813 148.105 186.657 132.102 180.58C126.709 178.533 116.707 172.494 111.404 173.05C105.96 173.621 90.5938 179.052 86.3619 182.472C82.7952 185.355 78.4925 194.833 76.2751 199.277C70.8118 210.218 66.5657 221.814 59.1445 231.684C55.9741 235.902 52.2518 238.699 49.8551 243.625C47.6424 248.173 47.6896 252.004 44.8683 256.094C43.2076 258.505 43.9389 276.117 43.6464 280.349C43.2973 285.392 44.0238 283.698 42.2452 288.501C41.1554 291.436 41.7168 290.469 40.5939 293.455C39.6315 296.012 39.8278 289.327 39.1343 291.959C38.9173 292.78 39.4268 293.738 38.0586 293.455V289.917C38.9739 288.157 37.1433 288.585 38.0586 286.919C39.1484 284.933 39.2729 288.945 38.9191 286.378C37.9425 279.806 37.5415 291.162 38.4615 285.071C39.3814 278.995 38.8436 272.654 38.9191 266.658C39.0701 255.273 42.1131 244.134 45.7789 233.415C46.2176 232.137 47.8641 221.295 50.6288 226.683C52.1197 229.589 50.0296 232.722 50.2655 232.944C51.3601 233.982 54.2993 230.184 54.9692 229.396C59.4512 224.112 62.0319 216.044 64.9994 209.704C69.5474 199.999 76.294 184.873 83.9794 177.259C88.433 172.843 98.8029 167.611 99.77 160.935C99.8502 160.369 100.067 159.727 99.5106 159.298C99.119 158.996 94.1982 156.944 93.3207 156.628C91.9242 156.128 90.0229 155.415 88.5934 155.222C82.3706 154.382 66.3063 158.402 63.3623 151.669C61.7111 147.9 67.4008 150.008 69.3021 149.881C72.9632 149.636 81.4317 147.291 85.7438 146.465C87.8103 146.069 89.0935 144.861 91.4241 145.295C96.0948 146.154 98.7746 149.466 102.488 151.707C133.701 170.512 155.134 181.929 192.061 187.195C217.382 190.808 248.671 191.686 274.619 190.978C296.519 190.384 313.904 184.921 336.253 189.686C349.67 192.549 358.375 195.739 370.825 200.876C385.451 206.911 407.889 207.363 423.689 208.401C430.506 208.85 441.376 210.435 447.693 209.774C454.176 209.095 459.148 208.798 465.664 208.406C481.28 207.458 505.039 200.004 519.678 194.012C528.991 190.2 537.668 183.732 547.268 180.557C563.602 175.155 580.671 172.031 596.948 166.545C612.62 161.265 618.536 151.509 629.84 140.955C636.054 135.157 653.802 121.786 656.402 114.658C656.827 113.497 657.596 110.378 656.511 109.558C655.322 108.652 644.716 107.534 642.602 107.425C635.158 107.043 622.603 107.085 615.427 108.595C611.733 109.374 606.223 115.87 602.944 118.286C596.363 123.131 575.996 130.925 567.466 134.232C564.644 135.326 561.559 136.397 558.874 137.416C556.19 138.436 552.902 139.219 550.052 139.464C549.476 139.511 547.537 139.969 547.519 139.058C548.877 138.921 550.462 138.771 551.75 138.332C562.413 134.713 572.358 129.391 582.577 124.81C589.338 121.781 597.32 120.031 603.147 115.186C604.51 114.054 605.237 112.577 606.256 111.69C619.777 99.9095 637.398 97.5034 654.84 98.9565C658.723 99.282 668.239 100.561 671.277 102.334C675.674 104.906 680.194 111.681 682.369 116.247C684.294 120.286 684.582 124.82 686.365 128.764C694.126 145.965 708.393 151.263 722.41 161.836C722.995 162.275 723.844 163.855 724.952 164.714C729.699 168.389 735.393 170.644 740.257 173.942C750.872 181.146 757.383 193.686 765.715 203.212C766.715 204.353 768.607 206.33 769.867 207.08C772.65 208.732 780.595 210.317 781.51 205.788C782.425 201.259 781.713 198.277 779.717 194.399C771.9 179.221 754.17 167.875 747.546 151.084C746.084 147.371 746.074 144.913 746.353 140.912C747.221 138.134 752.392 134.458 755.246 135.355C756.576 135.77 757.454 138.709 758.289 139.87C764.682 148.81 775.004 155.623 786.473 154.608C788.917 154.391 791.432 152.646 793.791 154.387C794.404 154.84 794.536 155.665 795.083 156.043C797.004 157.368 802.873 160.732 804.982 161.586C808.963 163.2 812.639 162.855 816.72 163.53C817.446 163.648 819.569 163.45 819.72 163.596C819.838 163.709 819.97 165.785 820.494 166.832C821.82 169.488 831.194 181.571 833.539 182.562C834.671 183.038 837.044 182.812 837.176 182.939C837.473 183.217 838.412 189.53 838.865 190.922C840.554 196.111 844.843 203.443 850.499 204.783C852.401 205.231 855.802 204.91 856.09 202.528C856.76 196.928 853.415 194.413 851.481 190.101C846.235 178.41 845.758 164.964 836.917 154.184C827.066 142.172 808.586 138.69 799.254 126.268C794.678 120.177 791.649 114.884 785.516 109.812C773.495 99.8718 755.307 102.306 741.102 94.7812C725.547 86.5438 708.482 80.8069 691.3 77.1175C684.653 75.688 677.746 73.0224 670.891 73.4801C664.743 73.8905 656.402 75.0275 650.132 75.8343C638.701 77.311 627.5 82.8686 616.097 83.7886C605.091 84.6803 597.504 83.4253 586.2 86.4447C573.453 89.851 564.96 93.4932 551.071 94.2481C530.846 95.3473 511.153 88.4168 491.074 85.7984C479.331 84.2651 470.193 84.8643 458.559 84.8171C451.704 84.7888 444.745 83.9962 437.805 84.3028C418.985 85.1379 399.68 93.4413 382.167 99.9048C379.718 100.811 375.345 100.863 374.368 103.665H394.655C395.353 106.51 390.286 107.529 388.154 107.779C362.503 110.798 331.271 93.0922 305.101 88.714C297.604 87.4591 290.131 88.4545 282.582 88.1149C257.016 86.9543 236.343 74.301 209.007 75.8343C198.746 76.4098 187.178 80.0143 176.926 80.1086C173.383 80.1417 162.753 79.4198 159.602 78.5187C157.139 77.8158 156.715 77.0845 156.87 74.4142C166.735 74.9756 176.28 71.4231 186.126 71.5835C186.715 69.2151 184.673 69.3802 182.974 68.3612C165.858 58.081 151.841 42.5969 133.602 34.6993C120.864 29.1841 106.55 24.0793 92.4526 24.8578C90.6268 24.9569 77.1715 26.627 76.6667 27.245C76.6242 27.2969 76.6101 28.5094 76.6855 28.6226C77.1904 29.4011 79.4738 28.6415 80.1532 28.7029C83.0877 28.9718 86.4279 30.2031 89.2209 30.4862C90.8108 30.6466 93.9199 29.9436 94.7785 30.5664C96.8355 32.062 94.5096 34.0954 92.9008 34.737C90.8061 35.5721 85.1447 34.9965 82.5781 34.7747C70.9392 33.7745 59.4371 31.2316 47.6754 30.991C41.5139 30.8636 12.8341 34.5483 6.84717 35.657V30.4673L6.86132 30.4862ZM1008.07 71.6731C1007.87 71.7863 1006.28 74.6312 1005.41 75.3861C1000.11 79.9577 994.243 76.3721 988.973 73.3999C976.443 66.3278 961.699 55.1087 949.806 46.5175C943.856 42.2242 930.783 33.567 929.401 26.3298C928.41 21.1401 934.43 19.4511 929.16 15.2617C925.4 12.2753 919.913 10.4589 915.214 9.86444C911.034 9.33604 909.284 8.8501 905.651 11.4874C900.169 15.4693 891.866 29.6936 887.605 35.9023C866.271 66.9836 844.763 98.0978 823.259 129.132C821.65 131.448 819.616 133.784 817.88 136.029C817.687 136.893 823.287 139.582 824.429 140.29C847.414 154.561 845.451 164.686 853.712 187.907C854.746 190.818 859.591 200.405 859.378 202.48C859.166 204.556 854.444 209.59 852.306 210.109C847.593 211.246 840.507 204.202 838.238 200.551C835.898 196.791 835.313 192.252 833.577 188.228C832.539 185.822 831.34 186.525 831.637 188.723C832.161 192.564 832.883 194.257 832.958 198.744C833.058 204.386 833.317 210.142 833.926 215.686C834.228 218.441 835.676 220.606 834.586 223.961C833.496 227.315 828.722 230.58 825.216 230.099C821.315 229.561 820.211 225.051 818.055 224.937C815.658 224.815 813.441 228.136 810.124 227.749C807.119 227.395 801.042 223.126 799.372 220.54C797.608 217.809 795.532 211.94 796.263 208.751C796.522 207.618 797.744 206.793 797.971 205.712C798.594 202.731 795.796 200.744 794.565 198.456C793.838 197.107 792.894 195.083 792.286 193.658C791.786 192.483 791.932 189.525 790.031 189.549C789.814 192.125 791.441 195.956 791.394 198.225C791.352 200.329 790.196 205.443 789.097 207.255C788.318 208.543 786.285 209.383 785.299 210.534C784.36 211.633 783.874 213.516 782.718 214.558C778.411 218.432 770.735 213.803 767.064 210.822C763.573 213.704 761.223 218.238 758.619 222.069C752.283 231.392 742.979 243.667 738.342 253.688C736.804 257.01 736.318 258.991 737.403 262.69C739.29 269.092 746.787 275.348 751.858 279.372C774.249 297.154 798.872 313.869 822.546 329.933C832.864 336.935 848.131 352.692 860.096 340.53C884.572 309.666 904.618 275.235 926.924 242.705C933.171 233.595 940.073 224.937 946.182 215.724V214.553C938.964 214.624 931.783 212.157 925.749 208.335C924.754 207.703 923.876 206.165 922.829 206.061C921.338 205.91 918.592 207.109 916.243 207.005C912.756 206.849 907.652 204.165 904.972 204.32C903.538 204.405 900.589 206.17 898.905 206.665C886.756 210.251 873.306 207.43 869.154 194.163C867.479 188.818 866.88 188.001 872.338 185.76C879.543 182.802 882.029 184.803 888.87 185.298C899.49 186.067 911.704 184.491 922.357 183.416C927.32 182.916 931.934 181.283 936.954 182.505C945.56 184.59 954.528 190.436 963.785 188.166L1022.81 99.8765C1030.54 89.049 1022.08 80.2691 1013.13 74.2443C1012.19 73.6122 1008.93 71.1777 1008.06 71.6778L1008.07 71.6731ZM757.161 157.788C756.699 157.062 755.883 155.552 755.689 154.769C754.991 151.999 756.605 149.895 751.816 150.391C751.042 151.112 759.449 164.568 760.549 165.011C761.431 165.365 761.332 164.549 761.157 163.931C760.421 161.303 758.336 159.628 757.161 157.788ZM797.508 181.595C797.73 181.939 797.825 188.299 798.089 189.742C798.523 192.125 800.613 197.56 802.104 199.409C802.967 200.48 805.368 201.395 805.609 203.023C805.902 205.014 803.929 205.472 803.349 207.359C801.99 211.784 803.745 216.36 807.237 219.281C807.581 219.569 811.898 222.277 812.176 222.362C813.903 222.89 814.823 222.885 815.049 220.946C816.153 211.539 812.172 207.571 810.992 199.952C810.1 194.172 810.69 190.676 808.176 184.84C805.043 177.561 803.698 181.052 799.438 177.537C796.621 175.211 794.961 170.937 792.621 168.314C789.611 164.94 787.36 163.454 782.699 164.072C782.157 164.143 781.746 163.888 782.006 164.771C782.435 166.233 785.19 168.196 786.233 169.507C788.445 172.3 791.555 178.061 794.017 180.123C794.895 180.859 797.395 181.425 797.504 181.59L797.508 181.595ZM812.497 172.593C811.587 172.857 811.176 174.754 811.219 175.626C811.275 176.726 813.757 184.779 814.356 185.742C815.224 187.133 816.295 186.921 817.168 187.643C819.447 189.53 815.252 190.842 815.016 192.639C814.936 193.233 815.531 198.164 815.71 199.008C816.687 203.636 823.24 206.175 822.56 210.973C822.4 212.091 821.489 213.256 821.371 214.53C820.942 219.068 831.751 228.528 831.562 220.474C831.458 216.087 828.911 209.364 828.269 204.854C827.873 202.065 828.967 199.555 828.717 196.857C828.576 195.342 827.226 190.568 826.693 188.973C824.66 182.901 822.518 182.194 818.324 178C817.224 176.9 814.087 172.13 812.502 172.588L812.497 172.593ZM790.965 186.718C792.116 185.661 791.271 180.179 789.328 180.59C787.686 180.939 789.394 185.166 789.917 186.119C790.153 186.548 790.252 187.374 790.965 186.718ZM885.784 186.742C885.671 186.567 882.307 185.883 881.732 185.836C879.882 185.694 874.471 185.449 874.947 188.133C877.684 187.666 880.604 188.733 883.185 188.619C884.317 188.568 886.685 188.171 885.784 186.742ZM963.643 230.118C963.771 229.339 963.657 229.061 963.162 228.485C962.464 227.679 957.986 225.216 956.609 224.187C955.307 223.22 953.877 220.64 952.165 221.21L941.474 237.671L963.643 230.118ZM977.273 258.005C977.099 257.793 972.532 257.024 971.876 257C968.234 256.873 962.129 262.529 958.477 264.346C957.397 264.884 953.297 265.992 953.009 266.426C952.566 267.096 952.853 269.474 952.585 270.72C951.966 273.564 950.249 279.839 949.164 282.401C947.815 285.595 947.598 283.316 947.626 287.426C947.645 290.223 947.937 294.219 947.565 296.842C947.192 299.466 944.371 301.466 945.243 304.669C948.805 304.646 950.485 305.603 953.5 303.249C955.802 301.452 956.788 297.847 956.599 295.002C956.477 293.167 954.972 292.379 955.33 290.502C955.764 288.237 957.628 288.336 958.557 286.609C959.812 284.269 961.954 278.641 962.166 276.065C962.483 272.239 961.737 273.711 960.397 271.819C958.317 268.875 966.092 268.653 967.889 268.106C970.031 267.455 972.206 266.162 974.15 265.058C974.697 263.374 978.594 259.59 977.273 258.01V258.005ZM942.842 285.836C942.38 285.444 938.337 286.68 938.601 283.675C938.775 281.712 943.757 282.453 945.116 278.825C946.211 275.909 944.588 269.984 943.592 266.917C942.323 263.02 940.172 262.808 936.28 262.676C935.029 273.277 927.16 286.326 929.41 297.14C930.057 300.249 934.425 304.669 937.237 305.82C940.861 307.307 940.035 304.9 940.776 303.263C941.247 302.216 943.531 300.706 943.819 299.23C944.14 297.56 943.805 286.642 942.842 285.836ZM998.39 283.741C999.588 282.514 1001.35 280.372 1000.83 278.584C1000.38 277.027 992.035 272.413 990.162 272.21C988.289 272.008 987.02 272.8 985.883 274.3C980.665 281.193 978.566 294.054 980.259 302.433C981.038 306.278 985.911 310.331 989.129 306.203C990.544 304.386 992.899 296.824 992.172 294.781C990.7 290.648 985.878 292.747 984.987 287.798C983.887 281.693 990.252 287.147 991.625 287.109C993.781 287.048 996.876 285.288 998.385 283.741H998.39Z" fill="#141914"/>
<path d="M124.803 73.9656C124.997 76.1783 122.987 77.3059 121.458 78.4004C111.013 85.9113 98.5718 87.8126 89.1786 98.9609C84.2437 104.82 85.0788 109.67 82.583 115.955C78.0775 127.292 60.4421 140.771 49.6382 146.229C48.7795 146.663 48.0058 147.239 46.9632 147.088C46.8169 146.206 47.5765 145.729 48.1285 145.191C56.3281 137.209 67.2783 133.09 74.7844 123.253C81.3847 114.61 80.5779 105.302 86.5979 97.7956C94.9202 87.4304 104.894 83.8024 116.16 78.2919C117.575 77.5984 123.86 73.0645 124.803 73.9656Z" fill="#141914"/>
<path d="M93.5804 110.392C93.8069 110.524 95.779 113.992 96.5055 114.766C102.997 121.682 117.231 125.164 126.464 125.853C135.697 126.541 143.878 124.772 152.827 126.381C154.087 126.608 158.347 127.457 157.828 129.391C157.625 130.146 156.946 129.919 156.422 129.905C153.625 129.83 150.506 128.844 147.704 128.669C138.353 128.094 129.983 129.301 120.458 127.608C110.178 125.777 95.0288 121.814 92.25 110.293C92.6793 110.326 93.1747 110.161 93.5757 110.392H93.5804Z" fill="#141914"/>
<path d="M356.454 178.231H355.044C353.61 165.587 367.188 164.355 373.208 157.472C375.203 155.193 378.459 149.15 379.935 146.272C380.61 144.96 380.346 143.427 381.45 142.125C382.86 140.45 389.932 138.016 392.051 138.148C393.136 138.219 394.905 139.238 393.98 140.502C393.457 141.219 386.262 140.615 383.323 143.526C381.624 145.21 379.322 151.471 377.779 154.023C376.84 155.571 375.104 158.373 373.934 159.614C368.159 165.742 355.77 166.776 356.454 178.231Z" fill="#141914"/>
<path d="M771.046 193.446C775.604 192.823 777.283 196.461 778.599 200.268C779.968 204.231 780.043 206.746 775.037 207.392C770.872 207.93 764.852 199.461 766.036 195.994C766.366 195.031 769.975 193.592 771.046 193.441V193.446ZM769.098 195.276C766.187 196.239 770.853 204.212 773.863 205C775.509 205.429 778.17 205.642 777.387 203.368C776.137 199.721 774.023 193.649 769.093 195.276H769.098Z" fill="#141914"/>
<path d="M850.41 190.964C850.575 191.12 850.684 194.705 851.42 195.384L855.6 201.815C850.561 201.81 848.547 195.13 848.999 190.964C849.382 191.025 850.311 190.869 850.41 190.964Z" fill="#141914"/>
<path d="M797.509 181.595C797.4 181.43 794.9 180.863 794.022 180.127C791.564 178.061 788.455 172.301 786.238 169.512C785.195 168.196 782.44 166.233 782.01 164.776C781.751 163.893 782.161 164.148 782.704 164.077C787.365 163.459 789.616 164.945 792.626 168.319C794.966 170.942 796.626 175.211 799.443 177.542C803.703 181.057 805.048 177.566 808.18 184.845C810.69 190.686 810.101 194.177 810.997 199.957C812.176 207.576 816.158 211.544 815.054 220.951C814.828 222.89 813.908 222.895 812.181 222.366C811.903 222.282 807.586 219.573 807.242 219.286C803.75 216.365 801.995 211.789 803.354 207.364C803.934 205.476 805.906 205.024 805.614 203.028C805.373 201.4 802.972 200.485 802.109 199.414C800.618 197.56 798.528 192.13 798.094 189.747C797.829 188.308 797.735 181.944 797.513 181.599L797.509 181.595Z" fill="#FCFCFC"/>
<path d="M812.497 172.592C814.087 172.135 817.22 176.9 818.319 178.004C822.513 182.198 824.66 182.906 826.688 188.978C827.222 190.572 828.571 195.347 828.712 196.861C828.967 199.56 827.873 202.07 828.264 204.858C828.901 209.363 831.454 216.091 831.557 220.479C831.746 228.532 820.933 219.073 821.367 214.534C821.489 213.265 822.4 212.095 822.556 210.977C823.24 206.179 816.682 203.636 815.705 199.012C815.526 198.168 814.932 193.238 815.012 192.643C815.248 190.846 819.442 189.53 817.163 187.647C816.29 186.925 815.219 187.138 814.351 185.746C813.752 184.783 811.271 176.73 811.214 175.631C811.171 174.763 811.582 172.861 812.492 172.597L812.497 172.592Z" fill="#FCFCFC"/>
<path d="M757.161 157.789C758.336 159.629 760.421 161.303 761.157 163.931C761.332 164.549 761.431 165.37 760.549 165.012C759.454 164.573 751.042 151.118 751.816 150.391C756.604 149.896 754.991 151.995 755.689 154.769C755.887 155.552 756.699 157.062 757.161 157.789Z" fill="#FCFCFC"/>
<path d="M790.965 186.718C790.252 187.374 790.158 186.548 789.917 186.119C789.389 185.166 787.681 180.938 789.328 180.589C791.271 180.179 792.116 185.661 790.965 186.718Z" fill="#FCFCFC"/>
<path d="M769.097 195.276C774.027 193.649 776.136 199.721 777.391 203.367C778.17 205.641 775.509 205.429 773.867 205C770.857 204.212 766.191 196.239 769.102 195.276H769.097Z" fill="#FCFCFC"/>
<path d="M59.0551 355.096C59.2103 355.507 59.5157 355.847 59.9132 356.039C60.3107 356.231 60.7662 356.259 61.1813 356.117C61.5964 355.975 61.939 355.673 62.1353 355.278C62.3318 354.882 62.3644 354.426 62.2352 354.007C62.2352 354.007 62.2352 354.007 62.2352 354.007C60.4732 348.286 58.7085 342.535 56.9475 336.786C45.3335 297.611 31.3724 257.231 23.2412 219.106C22.7686 206.403 22.2834 193.434 21.75 180.606C20.0762 140.106 17.991 99.5284 15.4893 59.0826C15.4875 58.991 15.4535 58.7223 15.4388 58.6319C12.7111 45.4044 9.93692 32.1854 7.11637 18.9749C5.86167 13.0984 4.5978 7.22358 3.32474 1.35044C3.23164 0.921328 2.9796 0.539805 2.61459 0.291552C2.24967 0.0432819 1.80324 -0.051672 1.37175 0.0279076C0.940247 0.107487 0.557067 0.355442 0.304717 0.717552C0.0522764 1.07968 -0.047088 1.52601 0.019012 1.9601C0.019012 1.9601 0.019012 1.9601 0.019012 1.9601C0.924767 7.90098 1.83971 13.8402 2.76383 19.7777C4.84125 33.1251 6.96508 46.4641 9.13531 59.7944L9.08482 59.3437C9.88522 99.86 11.1197 140.473 12.7938 180.976C13.3275 193.815 13.8967 206.746 14.5429 219.506C23.9117 261.77 38.8482 299.109 52.7535 338.201C54.8351 343.848 56.9377 349.49 59.0551 355.096Z" fill="black"/>
<path d="M1605.01 339.925C1605.02 340.364 1605.2 340.784 1605.51 341.093C1605.83 341.403 1606.25 341.577 1606.69 341.577C1607.13 341.577 1607.55 341.403 1607.86 341.093C1608.17 340.784 1608.35 340.364 1608.37 339.925C1608.54 334.543 1608.48 329.104 1608.42 323.752C1608.19 307.333 1607.6 290.943 1606.87 274.585C1606.86 274.35 1606.7 273.716 1606.62 273.497C1599.64 254.986 1591.31 234.536 1586.26 217.787C1585.73 206.242 1585.17 194.502 1584.57 182.871C1582.96 151.343 1581.02 119.76 1578.82 88.2917C1578.82 88.2694 1578.81 88.2027 1578.81 88.1804C1577.43 74.5998 1575.99 61.0241 1574.49 47.4532L1574.48 47.9801C1574.79 44.9514 1575.1 41.9224 1575.4 38.8929C1575.94 33.553 1576.46 28.2119 1576.98 22.8695C1577.02 22.4332 1576.9 21.9933 1576.63 21.6451C1576.36 21.2969 1575.96 21.0692 1575.53 21.0119C1575.1 20.9546 1574.66 21.0719 1574.3 21.338C1573.95 21.604 1573.72 21.9971 1573.65 22.4293C1573.65 22.4293 1573.65 22.4293 1573.65 22.4293C1572.76 27.7228 1571.88 33.0175 1571.01 38.3134C1570.52 41.3179 1570.03 44.3228 1569.54 47.328C1569.53 47.4352 1569.52 47.7478 1569.53 47.8549C1570.23 61.4904 1570.99 75.121 1571.81 88.7467L1571.81 88.6354C1572.71 120.182 1574 151.798 1575.62 183.331C1576.22 194.971 1576.87 206.682 1577.58 218.266C1584.01 240.234 1592.22 257.089 1600.15 276.141L1599.9 275.053C1601.31 291.315 1602.74 307.647 1604 323.948C1604.4 329.255 1604.8 334.674 1605.01 339.925Z" fill="black"/>
</svg>
