<svg preserveAspectRatio="none" width="100%" height="100%" overflow="visible" style="display: block;" viewBox="0 0 40 40" fill="none" xmlns="http://www.w3.org/2000/svg">
<g id="rocket-02">
<path id="Vector" d="M15.8333 14.108V10.6888C15.8333 8.24723 17.5 4.99983 20 3.33333C22.5 5 24.1667 8.24723 24.1667 10.6888V14.108C24.1667 14.6653 24.4452 15.1857 24.9088 15.4948L25.9245 16.1719C26.3882 16.481 26.6667 17.0013 26.6667 17.5587V20H13.3335L13.3334 17.5587C13.3333 17.0013 13.6118 16.481 14.0755 16.1718L15.0912 15.4948C15.5548 15.1857 15.8333 14.6653 15.8333 14.108Z" stroke="var(--stroke-0, #FF6400)" stroke-width="2" stroke-linejoin="round"/>
<path id="Vector_2" d="M32.5 36.6667C34.8012 36.6667 36.6667 34.6768 36.6667 32.2222C36.6667 29.7677 34.8012 27.7778 32.5 27.7778C32.5 25.3232 30.6345 23.3333 28.3333 23.3333" stroke="var(--stroke-0, #FF6400)" stroke-width="2" stroke-linecap="round" stroke-linejoin="round"/>
<path id="Vector_3" d="M7.5 36.6667C5.19882 36.6667 3.33333 34.6768 3.33333 32.2222C3.33333 29.7677 5.19882 27.7778 7.5 27.7778C7.5 25.3232 9.36548 23.3333 11.6667 23.3333" stroke="var(--stroke-0, #FF6400)" stroke-width="2" stroke-linecap="round" stroke-linejoin="round"/>
<path id="Vector_4" d="M16.6667 24.1667V35" stroke="var(--stroke-0, #FF6400)" stroke-width="2" stroke-linecap="round"/>
<path id="Vector_5" d="M23.3333 24.1667V30" stroke="var(--stroke-0, #FF6400)" stroke-width="2" stroke-linecap="round"/>
</g>
</svg>
